<svg height="512" viewBox="0 0 64 64" width="512" xmlns="http://www.w3.org/2000/svg"><g id="_5-mercury" data-name="5-mercury"><circle cx="32" cy="32" fill="#a97c50" r="31"/><path d="m53.79358 10.07965a31.17924 31.17924 0 0 0 -3.20178-2.79034 30.95753 30.95753 0 0 1 -43.31755 43.42138 31.213 31.213 0 0 0 2.78372 3.2096 30.9629 30.9629 0 1 0 43.73561-43.84064z" fill="#824f31"/><g fill="#efb175"><path d="m62.97 33.12-5.98-6-14.18-14.21a2.99966 2.99966 0 0 1 0-4.24 2.91927 2.91927 0 0 1 2.11-.88 2.97489 2.97489 0 0 1 2.12.88l8.78 8.8 5.97 5.98a30.19819 30.19819 0 0 1 1.18 9.67z"/><path d="m17.11136 28.46a2.98146 2.98146 0 0 1 -4.2299 0l-9.05822-9.42a30.63665 30.63665 0 0 1 2.99282-5.14l10.2953 10.32a3.00477 3.00477 0 0 1 0 4.24z"/><path d="m12.1732 41.9a2.98139 2.98139 0 0 1 -4.22984 0l-6.78377-6.8a30.59573 30.59573 0 0 1 .26941-8.21l10.7442 10.77a3.00477 3.00477 0 0 1 0 4.24z"/><path d="m32.6341 21.39a3.00161 3.00161 0 1 1 -4.23982 4.25l-16.87954-16.92a30.737 30.737 0 0 1 17.81726-7.61l3.3021 3.31a3.00161 3.00161 0 1 1 -4.23982 4.25l-1.40666-1.42a2.99454 2.99454 0 0 0 -4.22984 4.24z"/><path d="m40.39544 51.8a2.99948 2.99948 0 0 1 -4.23982 0l-1.40662-1.42a2.99808 2.99808 0 0 0 -4.22984 4.25l7.6915 7.72a30.03651 30.03651 0 0 1 -7.85115.6l-12.53989-12.57a2.99454 2.99454 0 1 1 4.22984-4.24 2.99458 2.99458 0 0 0 4.2299-4.24l-2.82324-2.83a2.99809 2.99809 0 1 1 4.23982-4.24l12.6995 12.73a3.02306 3.02306 0 0 1 0 4.24z"/><path d="m62.60216 35.88a30.76712 30.76712 0 0 1 -8.12053 17.31l-15.50277-15.53a2.99808 2.99808 0 1 1 4.22984-4.25l9.87632 9.9a2.99807 2.99807 0 0 0 4.23982-4.24l-1.41664-1.41a2.99811 2.99811 0 0 1 4.2299-4.25z"/></g><path d="m24.38309 56.95923 5.97644 5.99077a30.03651 30.03651 0 0 0 7.85115-.6l-5.9796-6.00171a31.01121 31.01121 0 0 1 -7.84799.61094z" fill="#a97c50"/><path d="m60.1381 33.41a3.00023 3.00023 0 0 0 -4.14892-.06567q-.35674 1.47272-.858 2.91357a2.97143 2.97143 0 0 0 .777 1.4021l1.41664 1.41a2.99807 2.99807 0 0 1 -4.23982 4.24l-.90572-.9079a31.0096 31.0096 0 0 1 -3.68282 4.79224l5.98517 5.99566a30.76712 30.76712 0 0 0 8.12053-17.31z" fill="#a97c50"/><path d="m62.97 33.12-5.98-6a31.53628 31.53628 0 0 0 -1.17-9.65l5.97 5.98a30.19819 30.19819 0 0 1 1.18 9.67z" fill="#a97c50"/><path d="m32 0a31.96989 31.96989 0 0 0 -31.80243 35.51874l-.01691.0169.02185.02186a31.998 31.998 0 1 0 31.79749-35.5575zm-9.89941 12.20117 9.89941 9.89942a2.00936 2.00936 0 0 1 0 2.82861 2.05766 2.05766 0 0 1 -2.82812 0l-16.14649-16.14649a29.862 29.862 0 0 1 15.994-6.63385l2.98061 2.98102a2.00937 2.00937 0 0 1 0 2.82862 2.05671 2.05671 0 0 1 -2.82812-.0005l-1.415-1.41358a3.99975 3.99975 0 0 0 -5.65625 5.65674zm-20.10059 19.79883c0-1.00616.0517-2.00043.14893-2.98145l9.34521 9.34522a2.0003 2.0003 0 1 1 -2.82914 2.82861l-6.54128-6.54181c-.07697-.87414-.12372-1.75677-.12372-2.65057zm.59473 5.94989 4.65627 4.65656a4.00009 4.00009 0 0 0 5.65722-5.65674l-10.40248-10.40247a29.82142 29.82142 0 0 1 4.47726-11.07892l9.46039 9.46039a2.00936 2.00936 0 0 1 0 2.82861 2.0567 2.0567 0 0 1 -2.82813 0l-4.24319-4.24267a.99989.99989 0 0 0 -1.41407 1.41406l4.24316 4.24268a3.99975 3.99975 0 0 0 5.65625-5.65674l-9.69731-9.69733a30.24941 30.24941 0 0 1 3.36077-3.711l16.23694 16.23694a3.99975 3.99975 0 0 0 5.65625-5.65674l-9.89941-9.89941a2.00936 2.00936 0 0 1 0-2.82861 2.05573 2.05573 0 0 1 2.82812.00048l1.415 1.41358a3.99975 3.99975 0 0 0 5.65625-5.65674l-1.70809-1.70837c.09839-.00098.19544-.00745.29407-.00745a30.03623 30.03623 0 0 1 27.39636 17.79865l-11.83972-11.84015a4.00009 4.00009 0 0 0 -5.65723 5.65673l14.84959 14.84913a.9999.9999 0 1 0 1.41407-1.41407l-14.84959-14.84912a2.0003 2.0003 0 0 1 2.8291-2.82861l14.82098 14.82144a29.921 29.921 0 0 1 1.03644 7.806c0 .55969-.01831 1.115-.04871 1.6673l-.96008-.96027a3.99975 3.99975 0 0 0 -5.65621 5.65674l1.414 1.41455a2.00013 2.00013 0 0 1 -2.8291 2.82813l-9.89939-9.89945a3.99975 3.99975 0 0 0 -5.65625 5.65674l14.83874 14.83975a29.98293 29.98293 0 0 1 -14.577 8.05l-7.333-7.33308a2.00936 2.00936 0 0 1 0-2.82861 2.05766 2.05766 0 0 1 2.82812 0l1.41407 1.41406a4.00009 4.00009 0 0 0 5.65722-5.65674l-12.72757-12.72754a4.00009 4.00009 0 0 0 -5.65722 5.65674l2.82812 2.82813a2.00936 2.00936 0 0 1 0 2.82861 2.05621 2.05621 0 0 1 -2.82812 0 4.00009 4.00009 0 1 0 -5.65723 5.65674l10.60254 10.60211a30.07236 30.07236 0 0 1 -25.1582-23.74402zm37.18359-1.00018a2.00937 2.00937 0 0 1 0-2.82862 2.00283 2.00283 0 0 1 2.82813 0l9.89941 9.89942a3.99992 3.99992 0 0 0 5.65723-5.65625l-1.41409-1.41455a2.00937 2.00937 0 0 1 0-2.82862 2.0577 2.0577 0 0 1 2.82813 0l2.11774 2.11823a29.889 29.889 0 0 1 -7.13031 15.49756zm-8.9201 25.02129-12.29377-12.29327a2.0003 2.0003 0 1 1 2.8291-2.82861 3.99975 3.99975 0 0 0 5.65625-5.65674l-2.82812-2.82812a2.00031 2.00031 0 1 1 2.8291-2.82862l12.72754 12.72754a2.00031 2.00031 0 1 1 -2.8291 2.82862l-1.41406-1.41407a3.99975 3.99975 0 0 0 -5.65625 5.65674l6.36041 6.36042a30.10016 30.10016 0 0 1 -4.23932.30511c-.38293 0-.76233-.01471-1.14178-.029z"/></g></svg>