<?xml version="1.0"?>
<svg xmlns="http://www.w3.org/2000/svg" viewBox="0 0 64 64" width="512" height="512"><g id="_7-earth" data-name="7-earth"><circle cx="32" cy="32" r="29" style="fill:#6ee1ef"/><path d="M50.12823,9.372A28.99309,28.99309,0,0,1,9.37189,50.12811,28.99493,28.99493,0,1,0,50.12823,9.372Z" style="fill:#5fb1d7"/><path d="M38,38l-2-5-5,1-4-3-6-2-3-2-2-6,2-1,1-4,4,1,3-2,2-2-1-2L26,8,20.94012,5.189A29.06123,29.06123,0,0,0,4.05829,24.24078L8,27l4-1,1,3,3,2,2,3-1,4,3,1v3l3,3,3,2,1,4,4,1,2,3,3,1,1-2-1-3,1-2,2-2,1-3-3-2Z" style="fill:#1ec951"/><path d="M50,47l4.50922,3.27942a28.86363,28.86363,0,0,0,6.4693-17.42828L56,34l-3-1-2,2-3,2,2,3h3l1,2-3,3Z" style="fill:#1ec951"/><polygon points="29 19 31 17 34 19 37 18 39 21 36 24 32 25 29 23 29 19" style="fill:#1ec951"/><polygon points="50 22 46 24 44 27 49 29 57 28 54 22 50 22" style="fill:#1ec951"/><path d="M55.77673,33.9256a28.78006,28.78006,0,0,1-2.44207,6.74377L54,42l-3,3-1,2,4.50922,3.27942a28.86363,28.86363,0,0,0,6.4693-17.42828Z" style="fill:#00a14b"/><path d="M63,18a3.99486,3.99486,0,0,0-3.08936-3.88629,4.98556,4.98556,0,0,0-9.82672.05377A3.95788,3.95788,0,0,0,49,14a4,4,0,0,0-4,4Z" style="fill:#f1f2f2"/><path d="M19,54a3.99486,3.99486,0,0,0-3.08936-3.88629,4.98556,4.98556,0,0,0-9.82672.05377A3.95788,3.95788,0,0,0,5,50a4,4,0,0,0-4,4Z" style="fill:#f1f2f2"/><path d="M6.00049,45a1.00008,1.00008,0,0,0,.90967-1.41406A27.71062,27.71062,0,0,1,4,32a27.965,27.965,0,0,1,.70532-6.22113L7.3999,27.7998a1.00631,1.00631,0,0,0,.84278.17041l3.10156-.77539.707,2.12159a1.00024,1.00024,0,0,0,.394.51562l2.8335,1.88916,1.64355,2.46533-.89257,3.5708a1.00068,1.00068,0,0,0,.6538,1.19141L19,39.7207V42a1.00012,1.00012,0,0,0,.293.707l3,3a.98335.98335,0,0,0,.15234.125l2.67823,1.78565.90625,3.625a1.00186,1.00186,0,0,0,.72753.72753l3.625.90625L32.168,55.55469a1.00024,1.00024,0,0,0,.51562.394l3,1a1.00058,1.00058,0,0,0,1.21094-.50146l1-2a.99981.99981,0,0,0,.0542-.76368l-.86914-2.60693.74219-1.48437L39.707,47.707a1.00382,1.00382,0,0,0,.2417-.39062l1-3a1.00031,1.00031,0,0,0-.394-1.14844l-2.41358-1.60889.8291-3.3164a1.00561,1.00561,0,0,0-.0415-.61426l-2-5a.99718.99718,0,0,0-1.125-.60889l-4.56152.91211L27.6001,30.2002a1.01078,1.01078,0,0,0-.28369-.14893l-5.87305-1.95752-2.603-1.73535-1.61719-4.852,1.22413-.61182a1.00031,1.00031,0,0,0,.52294-.65185l.75733-3.02979,3.02978.75732a.99475.99475,0,0,0,.79737-.13818l3-2a.98335.98335,0,0,0,.15234-.125l2-2a1.00034,1.00034,0,0,0,.1875-1.1543l-.96826-1.93652-.97754-2.93262a1.001,1.001,0,0,0-.43408-.541L23.4884,5.32684A27.89071,27.89071,0,0,1,32,4,27.61453,27.61453,0,0,1,49.37891,9.78369a1,1,0,1,0,1.24218-1.56738A29.59037,29.59037,0,0,0,32,2,30.03406,30.03406,0,0,0,2,32,29.60876,29.60876,0,0,0,5.08984,44.41406.99932.99932,0,0,0,6.00049,45ZM21.08368,6.21637,25.16846,8.667l.88281,2.64942a1.0547,1.0547,0,0,0,.0542.13086l.67773,1.35546-1.42041,1.41993-2.54931,1.6997-3.5708-.89257a1.00185,1.00185,0,0,0-1.21289.72753L17.1416,19.311l-1.58887.79443a1.00083,1.00083,0,0,0-.50146,1.21094l2,6a1.00024,1.00024,0,0,0,.394.51562l3,2a1.00855,1.00855,0,0,0,.23828.1167l5.8462,1.94873L30.3999,34.7998a1.00156,1.00156,0,0,0,.79639.18067l4.18408-.83692,1.57129,3.92774-.92187,3.686a1.00015,1.00015,0,0,0,.41552,1.07471l2.36426,1.57617L38.126,46.46l-1.833,1.833a.9961.9961,0,0,0-.1875.25976l-1,2a.99981.99981,0,0,0-.0542.76368l.86914,2.60693-.42676.85352-1.85205-.61719L31.832,51.44531a1.0014,1.0014,0,0,0-.58935-.41552l-3.418-.8545-.8545-3.418a1.0014,1.0014,0,0,0-.41552-.58935l-2.91748-1.94531L21,41.58594V39a1,1,0,0,0-.68359-.94873l-2.12159-.707.77539-3.10156a1.00027,1.00027,0,0,0-.13818-.79737l-2-3a.99986.99986,0,0,0-.27734-.27734L13.84033,28.3584l-.8916-2.67481a1.00027,1.00027,0,0,0-1.19141-.6538l-3.53808.88476-2.96137-2.221A28.13927,28.13927,0,0,1,21.08368,6.21637Z"/><path d="M58.62061,20.07471a1.00017,1.00017,0,0,0-.5459,1.30468A27.89717,27.89717,0,0,1,60,32c0,.06073-.00421.12048-.00458.18115l-3.931.78614-2.748-.916a.99811.99811,0,0,0-1.02344.2417l-1.93018,1.92969L47.44531,36.168a1.00017,1.00017,0,0,0-.27734,1.38672l2,3A.99963.99963,0,0,0,50,41h2.38184l.40136.80273L50.293,44.293a.9961.9961,0,0,0-.1875.25976l-1,2a1,1,0,0,0,.29443,1.24707l3.59534,2.69654A27.93425,27.93425,0,0,1,32,60a28.92656,28.92656,0,0,1-14.49219-3.86133.99988.99988,0,0,0-1.01562,1.72266A30.94992,30.94992,0,0,0,32,62,30.03406,30.03406,0,0,0,62,32a29.8823,29.8823,0,0,0-2.07471-11.37939A1.001,1.001,0,0,0,58.62061,20.07471Zm-7.353,26.626.5542-1.10839L54.707,42.707a1.00034,1.00034,0,0,0,.1875-1.1543l-1-2A.99985.99985,0,0,0,53,39H50.53516l-1.14844-1.72266,2.168-1.44531a.98335.98335,0,0,0,.15234-.125l1.563-1.563,2.41357.80469a.99309.99309,0,0,0,.5127.03174l3.70611-.74121A27.84516,27.84516,0,0,1,54.26672,48.9502Z"/><path d="M60.752,13.32471a5.98526,5.98526,0,0,0-11.40185-.31006A4.97947,4.97947,0,0,0,44,18a1,1,0,0,0,1,1H63a1,1,0,0,0,1-1A4.97022,4.97022,0,0,0,60.752,13.32471ZM46.17139,17A3.00508,3.00508,0,0,1,49,15a2.94966,2.94966,0,0,1,.812.12988,1.00017,1.00017,0,0,0,1.2583-.79638,3.98533,3.98533,0,0,1,7.856-.043,1.00011,1.00011,0,0,0,.75684.79687A2.98718,2.98718,0,0,1,61.82959,17Z"/><path d="M20,54a4.97022,4.97022,0,0,0-3.248-4.67529A5.98526,5.98526,0,0,0,5.3501,49.01465,4.97753,4.97753,0,0,0,0,54a1,1,0,0,0,1,1H19A1,1,0,0,0,20,54ZM2.17139,53A3.00508,3.00508,0,0,1,5,51a2.94966,2.94966,0,0,1,.812.12988,1.00017,1.00017,0,0,0,1.2583-.79638,3.98533,3.98533,0,0,1,7.856-.043,1.00011,1.00011,0,0,0,.75684.79687A2.98718,2.98718,0,0,1,17.82959,53Z"/><path d="M36.68359,17.05127l-2.53564.84521L31.55469,16.168a.99958.99958,0,0,0-1.26172.125l-2,2A1.00012,1.00012,0,0,0,28,19v4a.99963.99963,0,0,0,.44531.832l3,2a1.00088,1.00088,0,0,0,.79737.13818l4-1A.99628.99628,0,0,0,36.707,24.707l3-3a.99977.99977,0,0,0,.125-1.26172l-2-3A.99854.99854,0,0,0,36.68359,17.05127Zm-1.19482,6.0459-3.30225.82519L30,22.46484V19.41406l1.12744-1.12744L33.44531,19.832a1.00519,1.00519,0,0,0,.8711.1167l2.27539-.7583,1.12158,1.68213Z"/><path d="M43.62842,27.92871l5,2A1.00157,1.00157,0,0,0,49,30a.956.956,0,0,0,.124-.00781l8-1a.99995.99995,0,0,0,.77051-1.43946l-3-6A.99985.99985,0,0,0,54,21H50a1.00067,1.00067,0,0,0-.44727.10547l-4,2a1.001,1.001,0,0,0-.38476.33984l-2,3a1.00034,1.00034,0,0,0,.46045,1.4834Zm3.05615-3.15283L50.23584,23h3.146l2.09179,4.18311-6.34179.79248L45.51562,26.5293Z"/></g></svg>
