<svg height="512" viewBox="0 0 64 64" width="512" xmlns="http://www.w3.org/2000/svg"><g id="_8-mars" data-name="8-mars"><circle cx="32" cy="32" fill="#ef4136" r="31"/><g fill="#be3c36"><path d="m50.99219 7.50781a30.99157 30.99157 0 0 1 -43.4845 43.48426 30.99413 30.99413 0 1 0 43.4845-43.48426z"/><path d="m22 55c-4.067-.67786-7.83667-4.1156-10-7-1.70563-2.27417-5.3479-2.9306-8.17578-3.075a30.99914 30.99914 0 0 0 26.88122 18.0423c-.88458-4.30543-3.78381-7.14705-8.70544-7.9673z"/><path d="m43 11c2 4 6 2 9 4 1.53156 1.02106 4.62384 1.77985 7.28717 2.2796a31.02041 31.02041 0 0 0 -35.27405-15.2356 30.88429 30.88429 0 0 0 11.98688 5.956s5-1 7 3z"/><path d="m11 17a4.447 4.447 0 0 1 5 2c2 3 4 9 13 10s11-2 18 4c4.25 3.64288 10.70782 5.44086 15.129 6.29266a31.05838 31.05838 0 0 0 .871-7.29266c0-.8067-.04065-1.60345-.10114-2.39465-4.14186-3.85993-10.93652-6.60535-13.89886-6.60535-4 0-11 0-14-5s-7-4-13-5c-3.59174-.59863-6.4577-3.7002-8.187-6.098a31.1594 31.1594 0 0 0 -7.74787 8.123 5.55543 5.55543 0 0 0 4.93487 1.975z"/><path d="m50 45c-2-6-9-7-14-7s-15 0-20-8c-2.94147-4.7063-8.64978-7.68054-12.853-9.33325a30.83163 30.83163 0 0 0 -2.07324 9.29889c3.65518-.36438 8.22958.07556 9.92624 4.03436 2.49139 5.81317 7 3 9 8a12.994 12.994 0 0 0 12 8c4.17328 0 13.21844 3.48431 16.67841 8.12494a31.159 31.159 0 0 0 7.25128-6.41694 20.77852 20.77852 0 0 1 -5.92969-6.708z"/></g><path d="m27.60651 57.47205c-.36792.01295-.73542.02795-1.10651.02795a30.85591 30.85591 0 0 1 -18.93738-6.46478 30.91839 30.91839 0 0 0 23.14282 11.93207 9.61633 9.61633 0 0 0 -3.09893-5.49524z" fill="#a33c36"/><path d="m50.5882 46.00629a31.14658 31.14658 0 0 1 -8.2742 7.15564 19.09338 19.09338 0 0 1 6.36445 4.963 31.159 31.159 0 0 0 7.25124-6.41693 21.2588 21.2588 0 0 1 -5.34149-5.70171z" fill="#a33c36"/><path d="m62.89886 29.60535a26.26117 26.26117 0 0 0 -5.41577-3.77454c.00476.22333.01691.44476.01691.66919a30.91427 30.91427 0 0 1 -2.02655 11.02783 49.54855 49.54855 0 0 0 6.65555 1.76483 31.05838 31.05838 0 0 0 .871-7.29266c0-.8067-.04065-1.60345-.10114-2.39465z" fill="#a33c36"/><path d="m55.84406 16.50635c1.12615.303 2.32037.56256 3.44311.77325a31.13483 31.13483 0 0 0 -8.27942-9.752 30.91686 30.91686 0 0 1 4.83631 8.97875z" fill="#a33c36"/><path d="m32 0a32 32 0 1 0 32 32 32.036 32.036 0 0 0 -32-32zm25.255 15.83923a11.88849 11.88849 0 0 1 -4.70031-1.67123 9.385 9.385 0 0 0 -4.29981-1.27783c-1.97168-.2378-3.39648-.40918-4.36035-2.33741-1.85205-3.70361-6.10156-3.93066-8.09082-3.5332a.99988.99988 0 0 0 .38965 1.96144c.17285-.03321 4.28467-.78858 5.91211 2.46631 1.44531 2.89062 3.81738 3.17627 5.91015 3.42822a7.61247 7.61247 0 0 1 3.42969.95654 14.9382 14.9382 0 0 0 7.06787 2.15161 29.76371 29.76371 0 0 1 3.11927 9.335c-3.40863-3.08022-9.50513-5.31868-12.63245-5.31868-3.90234 0-10.43359 0-13.14258-4.51465-2.57422-4.29-5.99267-4.625-9.95166-5.01318-1.18213-.11572-2.40478-.23584-3.74121-.4585a9.66478 9.66478 0 0 1 -6.97168-4.85067 29.95419 29.95419 0 0 1 42.06213 8.67623zm-51.72485 30.26154c1.90473.22339 4.5835.87225 5.63782 2.45392 2.11084 3.166 6.22754 6.69189 10.66748 7.43164a10.36357 10.36357 0 0 1 7.88977 5.91867 30.0404 30.0404 0 0 1 -24.19507-15.80423zm26.32764 15.89563c-.69318-2.75354-3.98981-7.03223-9.69324-7.98273-3.8291-.63818-7.52148-3.852-9.33252-6.56836-1.92425-2.88684-6.72632-3.35351-8.31232-3.4292a29.81873 29.81873 0 0 1 -2.51971-12.01611c0-.396.01471-.78851.03-1.18085 1.904-.296 6.65832-.59131 8.0213 3.49726 1.207 3.6206 3.52637 4.43994 5.39014 5.09863 1.59277.563 2.85058 1.00781 3.62988 2.95654a13.97661 13.97661 0 0 0 12.92868 8.62842c4.899 0 13.75659 3.84668 14.933 7.00256a29.80492 29.80492 0 0 1 -14.933 3.99744c-.04767 0-.09454-.00336-.14221-.0036zm16.80346-5.06256c-2.12609-4.41449-11.95605-7.93384-16.66125-7.93384a11.95927 11.95927 0 0 1 -11.07129-7.37158c-1.11621-2.78955-3.08447-3.48535-4.8208-4.09912-1.75-.61817-3.26172-1.15235-4.15918-3.84571-1.56714-4.70105-6.4801-5.32464-9.77252-4.9118a29.7535 29.7535 0 0 1 1.49347-6.62293 18.85 18.85 0 0 1 11.48218 8.38093c5.29394 8.47021 15.79931 8.47021 20.84814 8.47021 7.26318 0 11.6543 2.125 13.05127 6.31641a1.0001 1.0001 0 1 0 1.89746-.63282c-1.16846-3.50488-4.71045-7.68359-14.94873-7.68359-5.04834 0-14.4458 0-19.15186-7.52979a20.688 20.688 0 0 0 -12.45526-9.20621 30.15987 30.15987 0 0 1 9.178-11.91028 11.67037 11.67037 0 0 0 8.26453 5.63257c1.40332.23388 2.7168.36279 3.87549.47607 3.83886.37647 6.37549.625 8.43164 4.05225 3.29105 5.48539 10.81546 5.48539 14.85746 5.48539 3.75214 0 11.95551 3.80341 12.97729 7.10583.00879.2978.02271.5943.02271.89417a30.02084 30.02084 0 0 1 -.598 5.96814 24.68238 24.68238 0 0 1 -13.7511-5.72742c-5.07568-4.35058-7.7749-4.24463-11.85156-4.08105a41.04682 41.04682 0 0 1 -6.689-.15332c-7.15332-.79492-9.56445-4.95264-11.32519-7.98828-.3335-.5752-.64356-1.1084-.95313-1.57276a5.4554 5.4554 0 0 0 -6.14844-2.394 1 1 0 0 0 .62452 1.8999 3.41149 3.41149 0 0 1 3.8599 1.60348c.28857.43261.57617.93066.88721 1.46679 1.86279 3.21192 4.67819 8.06592 12.83444 8.97217a43.35 43.35 0 0 0 6.98926.16455c3.85986-.15429 5.99023-.23925 10.47021 3.60108a26.43435 26.43435 0 0 0 14.576 6.18188 30.10643 30.10643 0 0 1 -12.26387 16.99268z"/><path d="m50 48h2v2h-2z"/><path d="m26 22h2v2h-2z"/><path d="m7 39h2v2h-2z"/><path d="m31 7h2v2h-2z"/></g></svg>