<svg height="512" viewBox="0 0 64 64" width="512" xmlns="http://www.w3.org/2000/svg"><g id="_9-jupiter" data-name="9-jupiter"><circle cx="32" cy="32" fill="#a97c50" r="31"/><path d="m51.82727 8.17273a30.99735 30.99735 0 0 1 -43.65472 43.65427 30.998 30.998 0 1 0 43.65472-43.65427z" fill="#824f31"/><path d="m62.98456 32.6109c.00397-.2039.01544-.406.01544-.6109a30.9371 30.9371 0 0 0 -1.79633-10.40845c-24.75952 4.9206-50.10162 1.365-58.38494-.06634a30.93709 30.93709 0 0 0 -1.81873 10.47479c0 .22961.01239.45618.01733.68457a209.14984 209.14984 0 0 0 30.98267 2.31543 234.12587 234.12587 0 0 0 30.98456-2.3891z" fill="#be3c36"/><path d="m54.87823 11.08447a30.98895 30.98895 0 0 0 -45.64154-.12054c9.23816 1.51178 29.02893 3.89593 45.64154.12054z" fill="#be3c36"/><path d="m60.627 43.90656c-19.00409 4.49761-47.105 1.75451-57.00866.56286a31.07434 31.07434 0 0 0 7.70092 10.61847 145.18644 145.18644 0 0 0 20.68074 1.91211 145.18644 145.18644 0 0 0 20.68079-1.91211 31.06541 31.06541 0 0 0 7.94621-11.18133z" fill="#be3c36"/><g fill="#a53c36"><path d="m8.22437 51.87189a31.10572 31.10572 0 0 0 3.09484 3.216c.70032.109 1.44452.22113 2.22315.33386a31.049 31.049 0 0 1 -5.31799-3.54986z"/><path d="m53.809 45.17133a31.10652 31.10652 0 0 1 -13.94623 11.4729c4.68787-.38227 9.29779-1.00843 12.81806-1.55634a31.06541 31.06541 0 0 0 7.94617-11.18133c-2.16661.51275-4.45543.92718-6.818 1.26477z"/><path d="m61.20367 21.59155c-.92309.18347-1.847.35144-2.77081.5119a30.85462 30.85462 0 0 1 .125 11.09333c1.68933-.20917 3.18811-.4104 4.4267-.58588.00397-.2039.01544-.406.01544-.6109a30.9371 30.9371 0 0 0 -1.79633-10.40845z"/><path d="m54.0824 11.25525c.26532-.05689.5321-.11084.79583-.17078a31.19526 31.19526 0 0 0 -3.01806-2.87378 31.09565 31.09565 0 0 1 2.22223 3.04456z"/></g><circle cx="22" cy="12" fill="#ef4136" r="3"/><circle cx="37" cy="24" fill="#ef4136" r="3"/><circle cx="19" cy="46" fill="#ef4136" r="3"/><path d="m32 0a32 32 0 1 0 32 32 32.036 32.036 0 0 0 -32-32zm-28.62439 23.0307a206.92765 206.92765 0 0 0 27.62439 1.9693l.00977-2a206.75535 206.75535 0 0 1 -26.9502-1.89008 30.04291 30.04291 0 0 1 5.51154-8.99774c1.07653.17865 3.272.52051 6.3161.881l.23535-1.98632c-2.01813-.2389-3.66913-.472-4.85706-.65241a29.91954 29.91954 0 0 1 41.49945.01978 135.80183 135.80183 0 0 1 -20.76007 1.62577c-.46386 0-.92383.00439-1.37939.00879-.88037.00879-1.74463.01709-2.58985-.0083l-.06152 1.999c.4419.01367.88818.01807 1.33887.01807.43994 0 .88379-.0044 1.332-.00879.44922-.0044.90283-.00879 1.35986-.00879a135.8554 135.8554 0 0 0 22.44043-1.88013 30.04032 30.04032 0 0 1 5.51322 9.01115 145.23272 145.23272 0 0 1 -17.00733 1.87042l.10742 1.99708a145.365 145.365 0 0 0 17.579-1.95777 29.89745 29.89745 0 0 1 1.36718 9.05082l-.002.00255a236.53886 236.53886 0 0 1 -29.99789 1.9059 236.5392 236.5392 0 0 1 -29.99788-1.90586l-.002-.00255a29.89786 29.89786 0 0 1 1.37061-9.06089zm11.61255 33.66071a114.46415 114.46415 0 0 0 17.01184 1.30859 114.46415 114.46415 0 0 0 17.01184-1.30859 29.91226 29.91226 0 0 1 -34.02368 0zm37.28162-2.59809a108.66717 108.66717 0 0 1 -20.26978 1.90668 108.66717 108.66717 0 0 1 -20.26978-1.90668 30.16391 30.16391 0 0 1 -6.6535-8.87652c1.688.18646 4.393.47027 7.83392.77929l.17872-1.99218c-4.3852-.39368-7.56867-.746-8.95246-.90577a29.77 29.77 0 0 1 -2.05346-8.9754 240.046 240.046 0 0 0 29.91656 1.87726 240.046 240.046 0 0 0 29.91656-1.87726 29.7719 29.7719 0 0 1 -2.05956 8.99091 206.74132 206.74132 0 0 1 -27.82965 1.88342c-.83154 0-1.65722.00928-2.47363.01855-1.582.01758-3.07471.03467-4.51953-.01513l-.06836 1.999c.73926.02539 1.48486.03369 2.24463.03369.77148 0 1.55713-.00879 2.36572-.01806.80908-.00879 1.62695-.01807 2.45117-.01807a212.03043 212.03043 0 0 0 26.87152-1.73273 30.16449 30.16449 0 0 1 -6.62909 8.829z"/><path d="m37 28a1 1 0 0 0 0-2 2 2 0 1 1 2-2 1 1 0 0 0 2 0 4 4 0 1 0 -4 4z"/><path d="m22 8a4 4 0 0 0 0 8 1 1 0 0 0 0-2 2 2 0 1 1 2-2 1 1 0 0 0 2 0 4.00458 4.00458 0 0 0 -4-4z"/><path d="m19 42a4 4 0 0 0 0 8 1 1 0 0 0 0-2 2 2 0 1 1 2-2 1 1 0 0 0 2 0 4.00458 4.00458 0 0 0 -4-4z"/></g></svg>