<svg height="512" viewBox="0 0 64 64" width="512" xmlns="http://www.w3.org/2000/svg"><g id="_10-saturn" data-name="10-saturn"><circle cx="32" cy="32" fill="#1ec951" r="20"/><g fill="#00a14b"><path d="m44.55652 16.44342a19.99044 19.99044 0 0 1 -28.11316 28.11316 19.99293 19.99293 0 1 0 28.11316-28.11316z"/><path d="m12.00549 31.89056c-.00018.03693-.00555.07251-.00555.10944a19.97091 19.97091 0 0 0 30.16437 17.20264c-19.41331-.42224-27.10797-9.87934-30.15882-17.31208z"/><path d="m31.99994 12a19.96969 19.96969 0 0 0 -5.47906.77875c5.2669 3.07129 14.3883 7.88244 23.30487 10.18561a19.98257 19.98257 0 0 0 -17.82581-10.96436z"/><path d="m20.66 15.53369a20.08647 20.08647 0 0 0 -5.53949 5.76984c11.78043 11.45318 28.42106 16.34454 35.4863 17.99347a19.88506 19.88506 0 0 0 1.33429-6.1319c-6.68994.05096-22.72387-1.62061-31.2811-17.63141z"/><path d="m12.00549 31.89056c-.00018.03693-.00555.07251-.00555.10944a19.97091 19.97091 0 0 0 30.16437 17.20264c-19.41331-.42224-27.10797-9.87934-30.15882-17.31208z"/><path d="m31.99994 12a19.96969 19.96969 0 0 0 -5.47906.77875c5.2669 3.07129 14.3883 7.88244 23.30487 10.18561a19.98257 19.98257 0 0 0 -17.82581-10.96436z"/><path d="m20.66 15.53369a20.08647 20.08647 0 0 0 -5.53949 5.76984c11.78043 11.45318 28.42106 16.34454 35.4863 17.99347a19.88506 19.88506 0 0 0 1.33429-6.1319c-6.68994.05096-22.72387-1.62061-31.2811-17.63141z"/></g><path d="m28.99994 49a19.90669 19.90669 0 0 1 -12.55658-4.44342 19.93688 19.93688 0 0 0 25.721 4.64606 50.99778 50.99778 0 0 1 -8.29883-.82361 19.97633 19.97633 0 0 1 -4.86559.62097z" fill="#008b4b"/><path d="m48.58985 33.04553a19.8424 19.8424 0 0 1 -1.88428 5.2395c1.48425.41816 2.81628.75873 3.90124 1.012a19.88506 19.88506 0 0 0 1.33429-6.1319c-.94482.00717-2.08105-.02255-3.35125-.1196z" fill="#008b4b"/><path d="m47.8681 22.41693c.65265.1936 1.30561.379 1.95765.54743a20.13122 20.13122 0 0 0 -5.244-6.48719 19.94725 19.94725 0 0 1 3.28635 5.93976z" fill="#008b4b"/><path d="m52.09175 30.9997c3.03484 2.80429 4.81693 5.47484 4.81693 7.60715a3.34843 3.34843 0 0 1 -.56172 1.84749c-2.53227 3.888-14.6052 1.91153-26.9657-4.41454-10.65177-5.45154-18.32-12.21275-18.29-16.64667a3.33746 3.33746 0 0 1 .49434-1.84748c1.14348-1.75565 4.23225-2.31551 8.4144-1.81911l2.00005-.783c-10.03814-2.93154-18.04864-2.94799-20.33111.55646-.4737.72732-.669.5-.66894 2.5.00018 6.00011 10.336 15.14923 24.74995 22.52625 16.72621 8.56042 33.06327 11.23498 36.48993 5.97375.4737-.72732.76006-.5.76012-2.5.00011-3.81521-4.21605-8.9038-10.9923-14.0004z" fill="#ffd241"/><path d="m52.81533 29.35907a20.97318 20.97318 0 0 0 -31.25286-15.57416c-10.57981-2.97291-18.30788-2.55237-20.73128 1.16968a5.47123 5.47123 0 0 0 -.831 3.03857c-.02758 4.06574 4.04718 9.30323 11.03081 14.61664a20.98431 20.98431 0 0 0 33.57158 16.18952l-.01465-.01947a43.16412 43.16412 0 0 0 10.00389 1.4057c4.00975 0 7.06248-.9541 8.48631-3.14014a5.50567 5.50567 0 0 0 .92187-3.04541c0-3.98041-3.97344-9.17444-11.18467-14.64093zm.14026 3.92163c1.908 2.06268 2.95361 3.91827 2.95361 5.32623a2.3519 2.3519 0 0 1 -.40039 1.30127c-.64972.99665-2.33838 1.50916-4.75188 1.52137a20.93789 20.93789 0 0 0 2.19866-8.14887zm-1.95928-1.35443c-4.37176-.3667-21.17965-2.35162-26.1183-11.40527a1.0001 1.0001 0 0 0 -1.75585.958c5.49962 10.08289 23.20167 12.09522 27.769 12.45038a18.96143 18.96143 0 0 1 -.8681 4.063c-.89093-.13611-6.8856-1.10284-9.46836-2.8244a1 1 0 1 0 -1.10933 1.66402c2.66991 1.78 8.06071 2.777 9.83188 3.0669-.22168.48443-.46777.958-.73065 1.4237-4.77733-.478-11.46433-2.4646-18.7096-6.1727-6.70061-3.42932-12.18235-7.42444-15.203-10.8612a19.00886 19.00886 0 0 1 11.81042-10.45691 64.11515 64.11515 0 0 0 17.26851 8.12621 1.00011 1.00011 0 0 0 .57422-1.916 65.04134 65.04134 0 0 1 -15.12643-6.82776 18.99121 18.99121 0 0 1 21.83559 18.712zm-33.22686-15.35712a20.96 20.96 0 0 0 -4.50268 5.95331 5.95221 5.95221 0 0 1 -1.17486-3.12353 2.32575 2.32575 0 0 1 .332-1.30762c.69821-1.07202 2.61141-1.59583 5.34554-1.52216zm14.23062 34.43085a19.0214 19.0214 0 0 1 -18.87-16.853 101.05271 101.05271 0 0 0 12.16393 7.2695 94.77777 94.77777 0 0 0 16.78549 6.69123 18.82685 18.82685 0 0 1 -10.07942 2.89227zm29.40228-5.0459c-2.75976 4.23779-17.56051 2.709-35.19621-6.31787-14.289-7.313-24.24312-16.20752-24.206-21.62891a3.55112 3.55112 0 0 1 .50686-1.96142c1.54742-2.37482 6.77739-2.86365 13.8848-1.45648-2.75818.14392-4.69116.94854-5.64361 2.4096a4.27926 4.27926 0 0 0 -.65625 2.38721c-.03222 4.78516 7.36034 11.67139 18.834 17.544 8.9531 4.582 16.37887 6.48974 21.44624 6.48925 3.45507 0 5.81444-.8872 6.81151-2.41894a4.31432 4.31432 0 0 0 .72558-2.39356 6.609 6.609 0 0 0 -.70776-2.80981c3.09714 3.14601 4.79849 6.00083 4.79849 8.20283a3.53593 3.53593 0 0 1 -.59765 1.9541z"/><path d="m22.88876 42.5415a1 1 0 0 0 -1.7832.90577c.0918.1831 2.35156 4.49853 11.78416 5.54638a.94421.94421 0 0 0 .11128.00635.99986.99986 0 0 0 .10938-1.99365c-8.16987-.90821-10.17474-4.38035-10.22162-4.46485z"/><path d="m45 27h2v2h-2z"/><path d="m20 25h2v2h-2z"/><path d="m29 31h2v2h-2z"/><path d="m18 39h2v2h-2z"/><path d="m33 22h2v2h-2z"/></g></svg>