<svg version="1.1" id="Layer_1" xmlns="http://www.w3.org/2000/svg" xmlns:xlink="http://www.w3.org/1999/xlink" x="0px" y="0px"
	 width="100%" viewBox="0 0 512 512" enable-background="new 0 0 512 512" xml:space="preserve">
<path fill="#000000" opacity="1.000000" stroke="none" 
	d="
M248.000000,513.000000 
	C165.353378,513.000000 83.206757,513.000000 1.030068,513.000000 
	C1.030068,342.395020 1.030068,171.790039 1.030068,1.092523 
	C171.563309,1.092523 342.126678,1.092523 512.845032,1.092523 
	C512.845032,171.666565 512.845032,342.333252 512.845032,513.000000 
	C424.790009,513.000000 336.644989,513.000000 248.000000,513.000000 
M153.276596,132.170044 
	C149.494904,130.936050 145.756424,129.538040 141.916122,128.526596 
	C139.416275,127.868217 136.632675,127.079941 134.211960,127.553932 
	C126.867256,128.992065 122.979614,135.687241 125.514542,143.672226 
	C128.253525,152.299957 132.040314,160.600952 135.482178,168.998505 
	C144.273911,190.448868 153.146652,211.866013 161.951874,233.310867 
	C170.630768,254.448013 179.238998,275.614197 187.927643,296.747314 
	C201.591537,329.981659 215.203110,363.238098 229.040100,396.400360 
	C233.356644,406.745544 238.390610,416.789490 242.975510,427.025391 
	C245.133545,431.843353 249.171890,431.504425 253.079193,430.728210 
	C257.626953,429.824738 261.738495,427.761353 262.838013,422.664154 
	C263.532501,419.444580 263.854187,416.103485 263.957977,412.804810 
	C264.381470,399.349426 264.672455,385.889740 264.982086,372.430969 
	C265.337769,356.973267 265.713409,341.515808 265.986816,326.056580 
	C266.372131,304.266602 266.671204,282.475159 267.009247,260.684357 
	C267.019562,260.018158 266.817108,259.201294 267.126007,258.718170 
	C267.746521,257.747742 268.531616,256.400330 269.462280,256.199921 
	C272.362030,255.575531 275.353088,255.279739 278.323547,255.095078 
	C295.042603,254.055771 311.765900,253.084671 328.487946,252.093613 
	C345.542786,251.082825 362.594147,250.007462 379.653931,249.088013 
	C394.406921,248.292877 409.185425,247.894333 423.916565,246.823822 
	C427.465851,246.565887 431.780762,245.243134 434.159241,242.841202 
	C439.427338,237.521240 438.040436,223.584198 427.821350,220.597107 
	C401.289307,212.841629 375.120697,203.845856 348.787842,195.404953 
	C313.780792,184.183594 278.730896,173.095505 243.745667,161.806763 
	C213.796494,152.142990 183.912476,142.277252 153.276596,132.170044 
z"/>
<path fill="#5A2752" opacity="1.000000" stroke="none" 
	d="
M153.638123,132.335449 
	C183.912476,142.277252 213.796494,152.142990 243.745667,161.806763 
	C278.730896,173.095505 313.780792,184.183594 348.787842,195.404953 
	C375.120697,203.845856 401.289307,212.841629 427.821350,220.597107 
	C438.040436,223.584198 439.427338,237.521240 434.159241,242.841202 
	C431.780762,245.243134 427.465851,246.565887 423.916565,246.823822 
	C409.185425,247.894333 394.406921,248.292877 379.653931,249.088013 
	C362.594147,250.007462 345.542786,251.082825 328.487946,252.093613 
	C311.765900,253.084671 295.042603,254.055771 278.323547,255.095078 
	C275.353088,255.279739 272.362030,255.575531 269.462280,256.199921 
	C268.531616,256.400330 267.746521,257.747742 267.126007,258.718170 
	C266.817108,259.201294 267.019562,260.018158 267.009247,260.684357 
	C266.671204,282.475159 266.372131,304.266602 265.986816,326.056580 
	C265.713409,341.515808 265.337769,356.973267 264.982086,372.430969 
	C264.672455,385.889740 264.381470,399.349426 263.957977,412.804810 
	C263.854187,416.103485 263.532501,419.444580 262.838013,422.664154 
	C261.738495,427.761353 257.626953,429.824738 253.079193,430.728210 
	C249.171890,431.504425 245.133545,431.843353 242.975510,427.025391 
	C238.390610,416.789490 233.356644,406.745544 229.040100,396.400360 
	C215.203110,363.238098 201.591537,329.981659 187.927643,296.747314 
	C179.238998,275.614197 170.630768,254.448013 161.951874,233.310867 
	C153.146652,211.866013 144.273911,190.448868 135.482178,168.998505 
	C132.040314,160.600952 128.253525,152.299957 125.514542,143.672226 
	C122.979614,135.687241 126.867256,128.992065 134.211960,127.553932 
	C136.632675,127.079941 139.416275,127.868217 141.916122,128.526596 
	C145.756424,129.538040 149.494904,130.936050 153.638123,132.335449 
M246.919098,253.464920 
	C246.926819,251.132294 246.799698,248.789841 246.968857,246.468979 
	C247.385361,240.754272 250.639160,236.446793 255.105194,235.997238 
	C260.373199,235.466919 265.671570,235.216614 270.961395,234.930420 
	C278.413025,234.527267 285.875824,234.308411 293.321686,233.823929 
	C312.481110,232.577255 331.629425,231.158722 350.791199,229.951263 
	C359.233795,229.419250 367.699432,229.257874 376.150665,228.847183 
	C376.920929,228.809753 377.662384,228.179413 379.241638,227.436676 
	C377.229431,226.562469 376.111633,225.955444 374.920990,225.578522 
	C364.188293,222.181000 353.424072,218.882278 342.704468,215.444229 
	C305.322815,203.454956 267.952179,191.431305 230.583496,179.401535 
	C206.140381,171.532791 181.710281,163.623581 157.264114,155.764359 
	C155.977554,155.350739 154.595154,155.235184 152.205811,154.780914 
	C182.386185,228.060760 212.135849,300.294830 241.885513,372.528900 
	C243.433975,371.304688 243.846878,370.410217 243.879349,369.502136 
	C244.258957,358.882721 244.608780,348.262024 244.911850,337.640076 
	C245.271881,325.020355 245.601212,312.399628 245.902847,299.778320 
	C246.264191,284.658844 246.582230,269.538300 246.919098,253.464920 
z"/>
<path fill="#F38035" opacity="1.000000" stroke="none" 
	d="
M246.919067,253.941559 
	C246.582230,269.538300 246.264191,284.658844 245.902847,299.778320 
	C245.601212,312.399628 245.271881,325.020355 244.911850,337.640076 
	C244.608780,348.262024 244.258957,358.882721 243.879349,369.502136 
	C243.846878,370.410217 243.433975,371.304688 241.885513,372.528900 
	C212.135849,300.294830 182.386185,228.060760 152.205811,154.780914 
	C154.595154,155.235184 155.977554,155.350739 157.264114,155.764359 
	C181.710281,163.623581 206.140381,171.532791 230.583496,179.401535 
	C267.952179,191.431305 305.322815,203.454956 342.704468,215.444229 
	C353.424072,218.882278 364.188293,222.181000 374.920990,225.578522 
	C376.111633,225.955444 377.229431,226.562469 379.241638,227.436676 
	C377.662384,228.179413 376.920929,228.809753 376.150665,228.847183 
	C367.699432,229.257874 359.233795,229.419250 350.791199,229.951263 
	C331.629425,231.158722 312.481110,232.577255 293.321686,233.823929 
	C285.875824,234.308411 278.413025,234.527267 270.961395,234.930420 
	C265.671570,235.216614 260.373199,235.466919 255.105194,235.997238 
	C250.639160,236.446793 247.385361,240.754272 246.968857,246.468979 
	C246.799698,248.789841 246.926819,251.132294 246.919067,253.941559 
z"/>
</svg>