<svg height="512" viewBox="0 0 64 64" width="512" xmlns="http://www.w3.org/2000/svg"><g id="_4-moon" data-name="4-moon"><path d="m61.84592 27.07735 1.15408-2.07735a40.75959 40.75959 0 0 0 -2-7c-1-2-3-5-3-5l-.37772.063a5.88686 5.88686 0 0 1 -5.1329-1.584 28.90647 28.90647 0 0 0 -20.48938-8.479q-.89639 0-1.7786.057a3.9703 3.9703 0 0 1 -2.7314-.865l-1.49-1.192-12.46178 4.45064a2 2 0 0 0 -1.30722 2.16636l.25361 1.77529a2.01763 2.01763 0 0 1 -.61353 1.7363 28.95137 28.95137 0 0 0 -8.1633 14.50457 2.00941 2.00941 0 0 1 -.91838 1.29307l-1.7894 1.07377 1 13 2.73332 2.424a7.44261 7.44261 0 0 1 1.61834 2.11065 28.99035 28.99035 0 0 0 25.64834 15.46535q1.18242 0 2.34089-.09537a5.0249 5.0249 0 0 1 3.9826 1.41886l.67651.67651s6-2 8-3 7-4 7-4v-1.41506a11.01992 11.01992 0 0 1 1.94073-6.22746 28.84117 28.84117 0 0 0 5.05927-16.35748q0-.57433-.023-1.14306a7.16858 7.16858 0 0 1 .86892-3.77959z" fill="#ffd241"/><g fill="#ffb028"><path d="m63 25a40.75959 40.75959 0 0 0 -2-7c-1-2-3-5-3-5l-.37769.06293a6.12322 6.12322 0 0 1 -2.08593-.01172 31.99682 31.99682 0 0 1 -37.65912 44.26373 28.83034 28.83034 0 0 0 14.12274 3.68506q1.1824 0 2.34088-.0954a5.02492 5.02492 0 0 1 3.98261 1.41889l.67651.67651s6-2 8-3 7-4 7-4v-1.4151a11.01992 11.01992 0 0 1 1.94073-6.22742 28.84124 28.84124 0 0 0 5.05927-16.35748q0-.57431-.023-1.14307a7.16762 7.16762 0 0 1 .869-3.7796z"/><circle cx="19" cy="17" r="3"/><circle cx="48" cy="46" r="3"/><circle cx="23" cy="52" r="3"/><circle cx="30" cy="28" r="4"/><circle cx="35" cy="14" r="5"/><circle cx="48" cy="28" r="5"/><circle cx="35" cy="44" r="4"/><circle cx="17" cy="36" r="4"/></g><path d="m63.98047 24.80371a40.87542 40.87542 0 0 0 -2.08594-7.251c-1.0166-2.03222-2.97949-4.98291-3.0625-5.10742a.99919.99919 0 0 0 -.99609-.43164l-.37793.063a4.88068 4.88068 0 0 1 -4.26172-1.30518 29.80547 29.80547 0 0 0 -21.19629-8.77147q-.92871 0-1.8418.05908a2.97012 2.97012 0 0 1 -2.043-.64795l-1.4902-1.19189a1.00036 1.00036 0 0 0 -.96094-.16113l-12.46191 4.45068a3.00884 3.00884 0 0 0 -1.96094 3.24951l.25293 1.77637a1.00776 1.00776 0 0 1 -.31738.874 29.88057 29.88057 0 0 0 -8.44434 15.00539 1.00744 1.00744 0 0 1 -.458.65479l-1.78907 1.07373a1.57833 1.57833 0 0 0 -.48535.93408l1.00293 13a.99676.99676 0 0 0 .334.67139l2.73243 2.42383a6.46413 6.46413 0 0 1 1.39841 1.83012 29.95791 29.95791 0 0 0 28.95411 15.89937 4.00156 4.00156 0 0 1 3.19433 1.12988l.67676.67627a1.00114 1.00114 0 0 0 1.02344.24121c.248-.08252 6.09082-2.03418 8.13086-3.0542 2.01074-1.00586 6.86132-3.91357 7.06738-4.03711a1.00083 1.00083 0 0 0 .48535-.85742v-1.415a9.98593 9.98593 0 0 1 1.76562-5.66211 29.81975 29.81975 0 0 0 5.23438-16.92289q0-.59472-.02441-1.18311a6.18184 6.18184 0 0 1 .74414-3.2539l1.15427-2.07715a.99879.99879 0 0 0 .10645-.68213zm-3.00879 1.7876a8.17969 8.17969 0 0 0 -.99414 4.30664q.022.54784.02246 1.102a27.8242 27.8242 0 0 1 -4.88477 15.79248 11.98252 11.98252 0 0 0 -2.11523 6.79257v.84717c-1.2998.77441-4.86621 2.88281-6.44727 3.67334-1.55468.77734-5.73828 2.22314-7.28515 2.74853l-.23731-.2373a5.989 5.989 0 0 0 -4.25293-1.72949c-.17187 0-.34472.00683-.51757.021a27.961 27.961 0 0 1 -27.02442-14.84087 8.42956 8.42956 0 0 0 -1.83887-2.3916l-2.43066-2.15578-.9209-11.98047 1.25879-.75586a3.03115 3.03115 0 0 0 1.37988-1.93167 27.87933 27.87933 0 0 1 7.88184-14.00391 3.02929 3.02929 0 0 0 .90918-2.59709l-.25293-1.77539a1.002 1.002 0 0 1 .65234-1.083l11.93653-4.26322 1.05468.84327a4.94429 4.94429 0 0 0 3.41993 1.08252c.5664-.03565 1.13867-.05518 1.71484-.05518a27.81272 27.81272 0 0 1 19.78223 8.18652 6.86764 6.86764 0 0 0 5.73535 1.90235c.61133.9414 1.874 2.93066 2.58789 4.3584a36.52713 36.52713 0 0 1 1.83984 6.39209z"/><path d="m19 21a4 4 0 1 0 -4-4 4.00427 4.00427 0 0 0 4 4zm0-6a2 2 0 1 1 -2 2 2.00229 2.00229 0 0 1 2-2z"/><path d="m23 48a4 4 0 1 0 4 4 4.00427 4.00427 0 0 0 -4-4zm0 6a2 2 0 1 1 2-2 2.00229 2.00229 0 0 1 -2 2z"/><path d="m48 42a4 4 0 1 0 4 4 4.00427 4.00427 0 0 0 -4-4zm0 6a2 2 0 1 1 2-2 2.00229 2.00229 0 0 1 -2 2z"/><path d="m39 43a.99974.99974 0 0 0 -1 1 3 3 0 1 1 -3-3 1 1 0 0 0 0-2 5 5 0 1 0 5 5 .99974.99974 0 0 0 -1-1z"/><path d="m22 36a5.00588 5.00588 0 0 0 -5-5 1 1 0 0 0 0 2 3 3 0 1 1 -3 3 1 1 0 0 0 -2 0 5 5 0 0 0 10 0z"/><path d="m30 33a1 1 0 0 0 0-2 3 3 0 1 1 3-3 1 1 0 0 0 2 0 5 5 0 1 0 -5 5z"/><path d="m40 13a.99974.99974 0 0 0 -1 1 4 4 0 1 1 -4-4 1 1 0 0 0 0-2 6 6 0 1 0 6 6 .99974.99974 0 0 0 -1-1z"/><path d="m53 27a.99974.99974 0 0 0 -1 1 4 4 0 1 1 -4-4 1 1 0 0 0 0-2 6 6 0 1 0 6 6 .99974.99974 0 0 0 -1-1z"/></g></svg>