<svg version="1.1" id="Layer_1" xmlns="http://www.w3.org/2000/svg" xmlns:xlink="http://www.w3.org/1999/xlink" x="0px" y="0px"
	 width="100%" viewBox="0 0 840 678" enable-background="new 0 0 840 678" xml:space="preserve">
<path fill="#000000" opacity="1.000000" stroke="none" 
	d="
M841.000000,235.000000 
	C841.000000,383.333344 841.000000,531.166687 841.000000,679.000000 
	C561.000000,679.000000 281.000000,679.000000 1.000000,679.000000 
	C1.000000,453.000000 1.000000,227.000000 1.000000,1.000000 
	C281.000000,1.000000 561.000000,1.000000 841.000000,1.000000 
	C841.000000,78.833336 841.000000,156.666672 841.000000,235.000000 
M821.020264,234.500000 
	C821.020264,170.103821 821.020264,105.707642 821.020264,41.419228 
	C553.832275,41.419228 287.620972,41.419228 21.378929,41.419228 
	C21.378929,243.743988 21.378929,445.626190 21.378929,647.669128 
	C287.990540,647.669128 554.201721,647.669128 821.020264,647.669128 
	C821.020264,510.044586 821.020264,372.772278 821.020264,234.500000 
z"/>
<path fill="#4F4F4F" opacity="1.000000" stroke="none" 
	d="
M821.020264,235.000000 
	C821.020264,372.772278 821.020264,510.044586 821.020264,647.669128 
	C554.201721,647.669128 287.990540,647.669128 21.378929,647.669128 
	C21.378929,445.626190 21.378929,243.743988 21.378929,41.419228 
	C287.620972,41.419228 553.832275,41.419228 821.020264,41.419228 
	C821.020264,105.707642 821.020264,170.103821 821.020264,235.000000 
M803.815613,240.519897 
	C798.875122,235.384644 793.934692,230.249374 789.002441,224.162155 
	C788.999207,197.726852 788.995972,171.291534 789.221375,144.238693 
	C794.160889,139.491196 799.100403,134.743698 804.540466,129.330048 
	C804.674072,128.518631 804.923584,127.707344 804.924377,126.895782 
	C804.946960,105.198265 804.958069,83.500694 804.908813,61.803265 
	C804.905945,60.539139 804.379211,59.276203 803.146851,58.023216 
	C768.369019,58.025803 733.591187,58.056259 698.813538,57.985397 
	C695.541992,57.978729 693.520630,58.855213 691.546387,61.818531 
	C688.598877,66.242638 684.618896,69.978882 680.130676,74.019531 
	C591.620667,74.027077 503.110687,74.034615 414.069855,73.644897 
	C410.734955,68.597633 407.400085,63.550365 403.209778,58.193386 
	C401.193634,57.805264 399.177765,57.079182 397.161346,57.077724 
	C315.412048,57.018612 233.662720,57.019070 151.913406,57.058117 
	C149.981842,57.059036 148.050552,57.586178 145.512115,58.192429 
	C141.332108,62.373341 137.209686,66.614677 132.931473,70.692566 
	C131.865692,71.708427 130.296921,72.196587 128.235809,72.546951 
	C126.925911,72.368309 125.616203,72.035370 124.306091,72.033806 
	C97.832756,72.002174 71.359337,71.992760 44.886066,72.046127 
	C43.272778,72.049377 41.660606,72.610916 39.656284,73.018570 
	C39.656284,73.018570 39.250740,73.007309 38.773346,73.696983 
	C38.511326,75.142456 38.024105,76.587448 38.021061,78.033463 
	C37.975384,99.739769 37.973953,121.446266 38.036522,143.152496 
	C38.041142,144.755341 38.614693,146.356552 39.281704,148.531418 
	C43.870201,152.905396 48.458694,157.279373 53.305756,162.117813 
	C53.514374,162.401428 53.722992,162.685059 54.012665,163.906906 
	C54.025688,199.679001 53.936241,235.451782 54.178909,271.222321 
	C54.209919,275.793060 52.919590,278.823456 48.786201,281.286133 
	C48.535065,281.450409 48.298428,281.633423 47.494965,282.200653 
	C46.209347,283.504425 45.105518,285.088898 43.604931,286.060730 
	C38.555664,289.330872 37.824062,293.940277 37.851776,299.610077 
	C38.077221,345.737762 38.006702,391.866943 38.018814,437.995667 
	C38.031670,486.955719 38.130699,535.916199 37.908974,584.875183 
	C37.884926,590.185364 39.556747,591.414246 44.404282,591.096741 
	C50.207935,590.716553 56.075882,590.731018 61.873150,591.157166 
	C63.911320,591.307068 66.557320,592.688843 67.664757,594.349182 
	C72.381866,601.421509 76.626648,608.808899 81.761940,616.472412 
	C83.239311,616.647217 84.716560,616.973633 86.194069,616.974792 
	C122.335236,617.003540 158.476440,617.010681 194.617554,616.959167 
	C196.397110,616.956665 198.175842,616.387329 200.689499,615.957764 
	C205.151123,620.998108 209.612747,626.038452 214.688538,631.630432 
	C215.839569,631.749207 216.990570,631.971497 218.141647,631.971863 
	C265.986084,631.988464 313.830505,631.992859 361.674896,631.946472 
	C363.090790,631.945129 364.506165,631.382874 366.508148,630.739136 
	C370.071014,627.154907 373.545258,623.475769 377.236420,620.028931 
	C378.927032,618.450256 381.044250,617.328491 383.909210,615.978394 
	C505.873657,615.972839 627.838135,615.973083 749.802551,615.919006 
	C752.203125,615.917908 754.603394,615.279785 756.993713,614.435852 
	C757.029480,614.271973 757.065308,614.108154 757.469543,613.217957 
	C757.580750,596.449036 757.699585,579.680237 757.773071,562.911133 
	C757.775757,562.293579 757.334839,561.674072 756.996765,560.326965 
	C757.374756,559.632202 757.578857,558.698303 758.156616,558.278198 
	C768.453613,550.791809 778.795837,543.367737 789.482056,535.200195 
	C789.648071,533.387146 789.958496,531.574158 789.959167,529.761047 
	C789.984680,462.310547 789.989380,394.860046 789.945435,327.409576 
	C789.944031,325.292694 789.399048,323.176147 788.979919,320.331024 
	C789.661072,319.520233 790.226929,318.562256 791.042725,317.923279 
	C795.346741,314.551880 799.713745,311.260864 804.603882,307.321075 
	C804.715637,306.500671 804.924072,305.680389 804.924988,304.859833 
	C804.948669,284.885254 804.964966,264.910645 804.920837,244.936142 
	C804.918030,243.666107 804.413452,242.397186 803.815613,240.519897 
M610.500000,644.108582 
	C659.223022,644.108582 707.946045,644.108582 756.996887,644.108582 
	C756.996887,637.798767 757.001831,632.479370 756.995728,627.159912 
	C756.988220,620.607910 756.984192,620.591248 750.527649,620.590759 
	C694.536926,620.586182 638.546265,620.588013 582.555542,620.588013 
	C518.566162,620.588074 454.576813,620.580872 390.587494,620.619934 
	C388.471497,620.621277 385.599335,620.298218 384.364349,621.474792 
	C377.092987,628.402344 370.203064,635.730164 363.184662,642.923157 
	C369.277802,644.108521 374.892975,643.752808 380.441132,644.209961 
	C385.839020,644.654785 389.594788,642.973267 392.668762,638.481201 
	C396.531494,632.836609 401.671692,630.573303 409.093842,630.597046 
	C506.743286,630.909546 604.394043,630.804810 702.044495,630.807190 
	C703.710449,630.807251 705.419434,630.622925 707.025696,630.941345 
	C707.932556,631.121094 709.293274,632.122131 709.327087,632.808533 
	C709.369385,633.665710 708.394409,635.173828 707.616089,635.354126 
	C705.546143,635.833679 703.345947,635.874634 701.197571,635.875061 
	C603.380493,635.895264 505.563385,635.891663 407.746307,635.893738 
	C401.562103,635.893860 398.558716,638.020325 396.471039,644.108582 
	C467.563080,644.108582 538.531555,644.108582 610.500000,644.108582 
M404.099487,46.401485 
	C407.747894,52.506149 411.505432,58.549103 415.004974,64.737946 
	C417.211121,68.639435 420.127716,69.949585 424.705231,69.941055 
	C505.832306,69.789787 586.960205,69.720009 668.086487,70.019997 
	C675.391846,70.047005 680.271606,68.438118 683.869995,61.950329 
	C686.863831,56.552563 690.771851,51.661903 694.570312,46.115292 
	C693.031189,45.768867 692.408508,45.506310 691.785706,45.505955 
	C639.478027,45.476082 587.170288,45.454807 534.862671,45.523621 
	C533.564270,45.525326 531.687927,46.176491 531.077148,47.149776 
	C529.186462,50.162502 527.777832,53.477695 525.683411,57.674713 
	C528.774963,57.674713 530.710327,57.674706 532.645691,57.674713 
	C573.459290,57.674896 614.272888,57.649834 655.086304,57.736160 
	C657.613281,57.741508 661.279053,56.471710 661.695618,60.660515 
	C661.743774,61.145252 657.456665,62.683422 655.177917,62.686897 
	C583.046326,62.796879 510.913666,62.606293 438.783997,62.991611 
	C429.667725,63.040310 422.981506,61.537895 419.520782,52.505615 
	C416.790436,45.379574 411.297668,44.229977 404.099487,46.401485 
M769.603882,644.106628 
	C784.850464,644.106628 800.097046,644.106628 815.391296,644.106628 
	C815.391296,603.999390 815.391296,564.711365 815.391296,524.973938 
	C813.953125,525.770813 813.032227,526.169312 812.234131,526.739685 
	C796.400879,538.055725 780.518494,549.305664 764.856079,560.853882 
	C763.254822,562.034485 762.237183,565.021484 762.220093,567.180237 
	C762.034973,590.660461 762.100464,614.142700 762.105591,637.624390 
	C762.106995,644.061279 762.119202,644.061279 769.603882,644.106628 
M801.142151,433.500000 
	C801.142090,408.671661 801.140869,383.843323 801.144836,359.014984 
	C801.145081,357.515778 800.815674,355.876343 801.314087,354.556946 
	C801.809692,353.244995 803.156555,352.254669 804.130127,351.123260 
	C804.813843,352.241852 805.802551,353.285248 806.101624,354.498657 
	C806.450623,355.914215 806.203857,357.478333 806.203918,358.977966 
	C806.204407,390.638458 806.203369,422.298981 806.202515,453.959473 
	C806.202454,455.840210 806.202454,457.720917 806.202454,459.601654 
	C810.893860,456.778290 816.040344,455.701355 816.022278,449.091675 
	C815.848755,385.437866 815.884460,321.783356 815.987976,258.129272 
	C815.995483,253.505829 813.940918,250.738464 809.674011,248.111435 
	C809.571899,250.431396 809.429504,252.188828 809.427368,253.946411 
	C809.409546,268.776855 808.703430,283.653900 809.667053,298.421478 
	C810.315796,308.363220 807.469971,315.087402 798.509644,319.180450 
	C794.786438,320.881165 793.992432,323.756073 793.998596,327.663269 
	C794.103394,394.150116 794.071716,460.637238 794.087036,527.124268 
	C794.087402,528.832458 794.277771,530.540710 794.387878,532.389282 
	C795.392212,532.114868 795.760193,532.107971 796.009216,531.932434 
	C800.633240,528.671875 805.240479,525.387512 809.856567,522.115723 
	C816.395203,517.481384 817.691101,513.209534 814.772644,504.883484 
	C812.110474,506.713806 809.623840,508.619904 806.938721,510.185455 
	C805.622314,510.952972 803.530762,511.836853 802.534790,511.296173 
	C801.562317,510.768280 801.158569,508.494415 801.154480,506.985260 
	C801.088928,482.823669 801.127441,458.661804 801.142151,433.500000 
M158.500015,621.123901 
	C133.004105,621.123535 107.507874,621.061829 82.012657,621.194885 
	C78.557373,621.212952 76.488060,620.139038 74.903412,617.069336 
	C71.927361,611.304199 68.477066,605.783936 65.499557,600.019470 
	C63.857006,596.839600 61.804291,595.427551 58.081135,595.580139 
	C50.927647,595.873230 43.751480,595.552917 36.588505,595.687866 
	C24.513256,595.915222 26.337021,593.330688 26.049356,606.755554 
	C25.977522,610.107971 27.310127,611.064941 30.468464,610.999756 
	C37.964024,610.844971 45.470490,611.123840 52.961433,610.882568 
	C56.445923,610.770264 58.485424,611.996643 60.086452,615.032349 
	C62.568283,619.738220 65.661705,624.125977 68.069115,628.865356 
	C70.276558,633.211060 73.141449,634.830566 78.244171,634.788513 
	C111.736610,634.512451 145.232895,634.731140 178.726608,634.548401 
	C183.513428,634.522278 187.086868,635.571899 189.704437,639.739197 
	C190.721649,641.358582 192.397263,643.623779 193.882355,643.709961 
	C201.033340,644.125000 208.221664,643.896667 216.608810,643.896667 
	C210.546753,636.328796 205.494843,629.741882 200.073776,623.474182 
	C198.890869,622.106506 196.399734,621.261902 194.492752,621.228638 
	C182.831436,621.025330 171.164856,621.125244 158.500015,621.123901 
M25.996548,455.500000 
	C25.996630,497.658783 25.995623,539.817566 26.000822,581.976379 
	C26.001028,583.641907 25.655050,585.462891 26.216087,586.925354 
	C26.693996,588.171082 28.381697,589.932434 29.293535,589.800659 
	C30.638407,589.606323 32.112942,588.135376 32.880806,586.826050 
	C33.470085,585.821289 33.080696,584.226746 33.080742,582.894470 
	C33.084183,489.078705 33.084671,395.262970 33.069286,301.447205 
	C33.069004,299.722961 32.875225,297.998718 32.744564,295.821869 
	C27.632099,298.493805 25.896595,301.919678 25.911375,307.027863 
	C26.053600,356.184937 25.996548,405.342529 25.996548,455.500000 
M60.579941,46.279079 
	C57.336845,45.993408 54.096664,45.508904 50.850075,45.461239 
	C42.752060,45.342354 34.651131,45.422070 26.631233,45.422070 
	C26.349363,46.912151 26.121109,47.557415 26.120466,48.202904 
	C26.091831,77.012962 26.061033,105.823067 26.094444,134.633087 
	C26.099903,139.340347 29.866272,140.843323 33.879566,143.861145 
	C33.879566,140.552582 33.879570,138.594284 33.879562,136.636002 
	C33.879478,116.818527 33.878689,97.001060 33.879623,77.183586 
	C33.880058,67.912865 33.881569,67.909325 42.889713,67.908379 
	C66.204384,67.905937 89.527161,67.549187 112.829865,68.077225 
	C122.566902,68.297867 131.000336,67.399422 137.603195,59.188805 
	C141.259995,54.641598 145.982025,50.951035 150.223907,46.874336 
	C149.916443,46.470253 149.608994,46.066170 149.301544,45.662090 
	C140.743530,45.621483 131.415359,42.713490 125.693321,52.904160 
	C124.751366,54.581741 122.780281,55.646782 121.552338,57.205647 
	C118.953781,60.504532 115.736786,61.496143 111.540840,61.439526 
	C94.890533,61.214863 78.235413,61.349178 61.582073,61.346798 
	C53.588520,61.345657 45.593323,61.414635 37.603153,61.247353 
	C36.386627,61.221878 35.193382,60.084309 33.989368,59.461117 
	C35.107559,58.465591 36.128803,56.783749 37.362991,56.609413 
	C40.468590,56.170727 43.700443,56.123306 46.826378,56.449314 
	C51.475784,56.934204 54.861721,55.435711 57.239513,51.398571 
	C58.160816,49.834335 59.401031,48.457932 60.579941,46.279079 
M364.500000,45.034801 
	C297.895844,45.034904 231.291595,45.083759 164.687744,44.947247 
	C159.050034,44.935692 155.224625,46.766525 152.390457,52.505180 
	C154.989868,52.682404 157.055908,52.944008 159.122177,52.945938 
	C187.928436,52.972836 216.734756,52.964462 245.541046,52.964207 
	C294.828094,52.963776 344.115265,52.993515 393.401917,52.852554 
	C395.405579,52.846821 397.404663,51.230518 399.405914,50.364601 
	C397.427734,48.618023 395.589111,46.659168 393.406281,45.223831 
	C392.463104,44.603645 390.808807,45.040550 389.477478,45.039188 
	C381.484985,45.031025 373.492493,45.035053 364.500000,45.034801 
M49.120495,208.500015 
	C49.120464,198.173370 48.449867,187.789871 49.319382,177.536972 
	C50.102676,168.300751 47.476299,161.672623 39.827942,156.439240 
	C35.212002,153.280792 31.286440,149.113373 26.444939,144.868210 
	C26.444939,165.561813 26.444939,184.948410 26.444939,205.087006 
	C32.304691,201.166962 37.483070,197.944229 36.420345,190.151047 
	C35.929844,186.554108 36.045273,182.798553 36.474422,179.184799 
	C36.683395,177.425140 38.243420,175.825912 39.191864,174.154068 
	C39.932240,175.730499 40.879879,177.248642 41.344814,178.902512 
	C41.692085,180.137817 41.417580,181.548294 41.417595,182.880768 
	C41.417881,207.365067 41.020634,231.859314 41.634243,256.328217 
	C41.847679,264.839355 39.678551,270.582733 32.454582,275.272644 
	C25.214325,279.973145 24.496597,283.833893 27.075251,293.106567 
	C33.454815,287.497345 39.516087,281.906769 45.885544,276.692657 
	C48.535099,274.523712 49.192986,272.165283 49.175274,268.961578 
	C49.065716,249.141571 49.120411,229.320648 49.120495,208.500015 
M814.562805,141.649384 
	C815.156494,136.940445 815.750122,132.231491 816.343750,127.522552 
	C815.744690,127.333992 815.145569,127.145424 814.546509,126.956863 
	C809.055481,132.222443 803.847168,137.835022 797.967773,142.623840 
	C794.423889,145.510422 793.331665,148.515839 793.369141,152.843048 
	C793.539612,172.506866 793.637329,192.176041 793.332092,211.836609 
	C793.232117,218.273788 793.956116,223.691040 799.101135,228.360458 
	C804.775696,233.510422 809.737854,239.445358 815.449768,245.504562 
	C815.449768,224.397186 815.449768,204.368301 815.449768,183.660110 
	C809.759094,188.046265 805.000732,191.809372 806.092773,199.456879 
	C806.698975,203.702698 806.430603,208.127411 806.065735,212.429886 
	C805.929626,214.035065 804.398010,215.521912 803.502747,217.062729 
	C802.712769,215.538864 801.255310,214.023041 801.236877,212.489899 
	C801.064514,198.159668 801.659180,183.801315 800.967834,169.502548 
	C800.467163,159.147552 801.852539,150.356018 811.541138,144.657196 
	C812.513977,144.084946 813.208435,143.039322 814.562805,141.649384 
M505.499329,45.281830 
	C477.836212,45.281830 450.173096,45.281830 422.146057,45.281830 
	C425.879425,56.050705 428.146454,57.765450 437.597961,57.765728 
	C462.542206,57.766472 487.486481,57.767399 512.430725,57.765324 
	C520.818237,57.764626 523.832886,54.781830 524.327698,45.282845 
	C518.371033,45.282845 512.434937,45.282845 505.499329,45.281830 
M816.008240,113.219078 
	C816.007690,92.745377 815.966492,72.271530 816.044373,51.798126 
	C816.058228,48.141758 815.466980,45.792519 810.944885,45.806267 
	C775.657288,45.913548 740.369202,45.870899 705.081299,45.867085 
	C700.681519,45.866608 698.463379,48.064312 698.006226,53.088581 
	C700.286133,53.088581 702.239197,53.088516 704.192261,53.088589 
	C736.317627,53.089779 768.442993,53.075302 800.568359,53.103783 
	C808.112671,53.110474 809.210266,54.172348 809.766785,61.604652 
	C809.890808,63.261200 809.849731,64.931618 809.850281,66.595665 
	C809.855774,83.240929 809.837891,99.886238 809.876770,116.531410 
	C809.881165,118.409912 810.194214,120.287697 810.416138,122.741684 
	C814.872620,120.803474 816.258545,117.981270 816.008240,113.219078 
M61.403732,644.085205 
	C64.134224,644.085205 66.864723,644.085205 71.220848,644.085205 
	C65.217003,634.154053 60.174721,625.637451 54.868256,617.288757 
	C54.292713,616.383240 52.194744,616.140747 50.793812,616.116333 
	C44.136486,616.000610 37.473640,616.172791 30.817612,616.024475 
	C27.406860,615.948547 25.991432,617.254639 26.066240,620.695435 
	C26.200102,626.852356 26.231136,633.018311 26.046326,639.172729 
	C25.937284,642.804016 27.245523,644.204529 30.962236,644.138184 
	C40.781643,643.962769 50.606331,644.082825 61.403732,644.085205 
M238.500702,636.852661 
	C232.279114,636.852661 226.057526,636.852661 219.395828,636.852661 
	C220.725494,642.406982 223.399399,644.126404 227.896225,644.117371 
	C268.699463,644.035095 309.502991,644.029602 350.306152,644.118530 
	C355.151978,644.129089 357.784454,641.615356 360.524658,636.851807 
	C319.603912,636.851807 279.552124,636.851807 238.500702,636.852661 
M26.089457,263.374847 
	C26.089457,266.080200 26.089457,268.785553 26.089457,272.191010 
	C33.042435,268.903046 36.669746,265.474396 36.391144,258.069427 
	C35.804214,242.469528 36.221489,226.832169 36.198635,211.210220 
	C36.196102,209.478912 36.011684,207.747864 35.879196,205.455719 
	C29.437178,209.101410 25.561886,212.851242 25.910276,220.535492 
	C26.541908,234.466934 26.089575,248.447525 26.089457,263.374847 
M88.499977,56.211113 
	C95.497330,56.210781 102.494690,56.218494 109.492027,56.207790 
	C116.135811,56.197632 120.530075,53.039650 123.292366,45.947632 
	C121.190788,45.853912 119.250420,45.695316 117.309830,45.692364 
	C103.148529,45.670815 88.987190,45.675484 74.825859,45.682518 
	C67.701599,45.686058 64.670464,47.932545 61.468254,56.211807 
	C70.371109,56.211807 78.935539,56.211807 88.499977,56.211113 
M84.637611,644.084534 
	C118.069511,644.084534 151.501419,644.084534 184.933319,644.084534 
	C185.038742,643.271301 185.144150,642.458069 185.249573,641.644897 
	C182.923279,641.039001 180.598846,639.914001 178.270416,639.905579 
	C145.980453,639.789490 113.689926,639.816772 81.399590,639.853516 
	C79.711128,639.855408 78.023125,640.255066 76.025108,640.508850 
	C77.529922,645.410522 81.065910,643.611450 84.637611,644.084534 
M808.530518,502.814758 
	C814.345337,499.901398 816.726807,495.524139 816.095215,488.763031 
	C815.418091,481.514587 815.967102,474.153870 815.922180,466.842499 
	C815.911621,465.129028 815.664429,463.416992 815.440063,460.637695 
	C811.255371,464.318329 806.078918,465.321106 806.137634,471.310425 
	C806.230530,480.781372 806.102234,490.254761 806.237427,499.724701 
	C806.253540,500.854034 807.330322,501.968201 808.530518,502.814758 
M806.155640,178.120850 
	C806.279846,179.832397 806.404114,181.543961 806.579224,183.956512 
	C812.586121,179.632721 816.862671,175.705856 816.073120,168.168991 
	C815.432251,162.051361 815.942993,155.813110 815.942993,148.323166 
	C809.890137,152.880768 804.972107,155.886856 806.034729,163.326050 
	C806.683655,167.869354 806.155151,172.580841 806.155640,178.120850 
z"/>
<path fill="#000000" opacity="1.000000" stroke="none" 
	d="
M404.065186,58.503098 
	C407.400085,63.550365 410.734955,68.597633 414.640503,74.178726 
	C416.031799,74.806496 416.852478,74.982582 417.673126,74.982719 
	C504.110504,74.997307 590.547913,75.003242 676.985291,74.959541 
	C678.349670,74.958855 679.713867,74.338768 681.078125,74.007751 
	C684.618896,69.978882 688.598877,66.242638 691.546387,61.818531 
	C693.520630,58.855213 695.541992,57.978729 698.813538,57.985397 
	C733.591187,58.056259 768.369019,58.025803 803.599854,58.485363 
	C804.048523,82.630409 804.044189,106.313316 804.039917,129.996216 
	C799.100403,134.743698 794.160889,139.491196 788.736816,144.789490 
	C788.171570,171.251572 788.083313,197.162827 788.051575,223.074158 
	C788.050720,223.753769 788.666138,224.434113 788.994202,225.114120 
	C793.934692,230.249374 798.875122,235.384644 803.929871,241.282013 
	C804.049072,264.010071 804.053955,285.976044 804.058899,307.941986 
	C799.713745,311.260864 795.346741,314.551880 791.042725,317.923279 
	C790.226929,318.562256 789.661072,319.520233 789.005310,321.158264 
	C789.018127,356.310699 788.982849,390.635895 788.999329,424.961060 
	C789.017090,461.950775 789.083313,498.940521 789.128357,535.930237 
	C778.795837,543.367737 768.453613,550.791809 758.156616,558.278198 
	C757.578857,558.698303 757.374756,559.632202 757.009521,561.154541 
	C757.048584,579.302795 757.074890,596.623535 757.101196,613.944275 
	C757.065308,614.108154 757.029480,614.271973 756.530884,614.720459 
	C633.710693,615.005188 511.353302,615.000549 388.995972,615.046814 
	C386.986511,615.047546 384.977295,615.668152 382.967987,615.999512 
	C381.044250,617.328491 378.927032,618.450256 377.236420,620.028931 
	C373.545258,623.475769 370.071014,627.154907 365.752197,630.880249 
	C314.688995,631.040466 264.381683,631.059631 214.074402,631.078796 
	C209.612747,626.038452 205.151123,620.998108 199.857971,615.983582 
	C159.698898,616.033325 120.371353,616.057312 81.043808,616.081299 
	C76.626648,608.808899 72.381866,601.421509 67.664757,594.349182 
	C66.557320,592.688843 63.911320,591.307068 61.873150,591.157166 
	C56.075882,590.731018 50.207935,590.716553 44.404282,591.096741 
	C39.556747,591.414246 37.884926,590.185364 37.908974,584.875183 
	C38.130699,535.916199 38.031670,486.955719 38.018814,437.995667 
	C38.006702,391.866943 38.077221,345.737762 37.851776,299.610077 
	C37.824062,293.940277 38.555664,289.330872 43.604931,286.060730 
	C45.105518,285.088898 46.209347,283.504425 48.020653,281.975067 
	C48.815662,281.562256 49.015762,281.318298 49.146641,281.017548 
	C52.919590,278.823456 54.209919,275.793060 54.178909,271.222321 
	C53.936241,235.451782 54.025688,199.679001 53.938965,163.159241 
	C53.592571,162.158844 53.319881,161.906097 53.047192,161.653336 
	C48.458694,157.279373 43.870201,152.905396 39.141682,147.780624 
	C39.084686,122.355659 39.167713,97.681480 39.250740,73.007309 
	C39.250740,73.007309 39.656284,73.018570 40.316040,73.003571 
	C70.303642,72.968147 99.631500,72.947723 128.959351,72.927299 
	C130.296921,72.196587 131.865692,71.708427 132.931473,70.692566 
	C137.209686,66.614677 141.332108,62.373341 146.274475,58.077892 
	C230.752731,57.974934 314.468628,57.983078 398.184509,58.019150 
	C400.144806,58.019997 402.104950,58.334759 404.065186,58.503098 
z"/>
<path fill="#BFBFBF" opacity="1.000000" stroke="none" 
	d="
M610.000000,644.108582 
	C538.531555,644.108582 467.563080,644.108582 396.471039,644.108582 
	C398.558716,638.020325 401.562103,635.893860 407.746307,635.893738 
	C505.563385,635.891663 603.380493,635.895264 701.197571,635.875061 
	C703.345947,635.874634 705.546143,635.833679 707.616089,635.354126 
	C708.394409,635.173828 709.369385,633.665710 709.327087,632.808533 
	C709.293274,632.122131 707.932556,631.121094 707.025696,630.941345 
	C705.419434,630.622925 703.710449,630.807251 702.044495,630.807190 
	C604.394043,630.804810 506.743286,630.909546 409.093842,630.597046 
	C401.671692,630.573303 396.531494,632.836609 392.668762,638.481201 
	C389.594788,642.973267 385.839020,644.654785 380.441132,644.209961 
	C374.892975,643.752808 369.277802,644.108521 363.184662,642.923157 
	C370.203064,635.730164 377.092987,628.402344 384.364349,621.474792 
	C385.599335,620.298218 388.471497,620.621277 390.587494,620.619934 
	C454.576813,620.580872 518.566162,620.588074 582.555542,620.588013 
	C638.546265,620.588013 694.536926,620.586182 750.527649,620.590759 
	C756.984192,620.591248 756.988220,620.607910 756.995728,627.159912 
	C757.001831,632.479370 756.996887,637.798767 756.996887,644.108582 
	C707.946045,644.108582 659.223022,644.108582 610.000000,644.108582 
z"/>
<path fill="#BBBBBB" opacity="1.000000" stroke="none" 
	d="
M404.357849,46.107479 
	C411.297668,44.229977 416.790436,45.379574 419.520782,52.505615 
	C422.981506,61.537895 429.667725,63.040310 438.783997,62.991611 
	C510.913666,62.606293 583.046326,62.796879 655.177917,62.686897 
	C657.456665,62.683422 661.743774,61.145252 661.695618,60.660515 
	C661.279053,56.471710 657.613281,57.741508 655.086304,57.736160 
	C614.272888,57.649834 573.459290,57.674896 532.645691,57.674713 
	C530.710327,57.674706 528.774963,57.674713 525.683411,57.674713 
	C527.777832,53.477695 529.186462,50.162502 531.077148,47.149776 
	C531.687927,46.176491 533.564270,45.525326 534.862671,45.523621 
	C587.170288,45.454807 639.478027,45.476082 691.785706,45.505955 
	C692.408508,45.506310 693.031189,45.768867 694.570312,46.115292 
	C690.771851,51.661903 686.863831,56.552563 683.869995,61.950329 
	C680.271606,68.438118 675.391846,70.047005 668.086487,70.019997 
	C586.960205,69.720009 505.832306,69.789787 424.705231,69.941055 
	C420.127716,69.949585 417.211121,68.639435 415.004974,64.737946 
	C411.505432,58.549103 407.747894,52.506149 404.357849,46.107479 
z"/>
<path fill="#BFBFBF" opacity="1.000000" stroke="none" 
	d="
M769.119873,644.106567 
	C762.119202,644.061279 762.106995,644.061279 762.105591,637.624390 
	C762.100464,614.142700 762.034973,590.660461 762.220093,567.180237 
	C762.237183,565.021484 763.254822,562.034485 764.856079,560.853882 
	C780.518494,549.305664 796.400879,538.055725 812.234131,526.739685 
	C813.032227,526.169312 813.953125,525.770813 815.391296,524.973938 
	C815.391296,564.711365 815.391296,603.999390 815.391296,644.106628 
	C800.097046,644.106628 784.850464,644.106628 769.119873,644.106567 
M780.774292,593.034302 
	C779.566650,593.916382 778.264587,594.695129 777.167175,595.697876 
	C771.336548,601.025574 769.215149,607.639587 771.630188,615.137512 
	C774.073975,622.724487 779.514893,627.448853 787.576233,628.320801 
	C794.893860,629.112305 800.945251,626.471802 805.165955,620.247803 
	C810.008057,613.107483 809.662292,604.662781 804.326050,598.024841 
	C798.637512,590.948547 790.863037,589.125916 780.774292,593.034302 
z"/>
<path fill="#BBBBBB" opacity="1.000000" stroke="none" 
	d="
M801.142212,434.000000 
	C801.127441,458.661804 801.088928,482.823669 801.154480,506.985260 
	C801.158569,508.494415 801.562317,510.768280 802.534790,511.296173 
	C803.530762,511.836853 805.622314,510.952972 806.938721,510.185455 
	C809.623840,508.619904 812.110474,506.713806 814.772644,504.883484 
	C817.691101,513.209534 816.395203,517.481384 809.856567,522.115723 
	C805.240479,525.387512 800.633240,528.671875 796.009216,531.932434 
	C795.760193,532.107971 795.392212,532.114868 794.387878,532.389282 
	C794.277771,530.540710 794.087402,528.832458 794.087036,527.124268 
	C794.071716,460.637238 794.103394,394.150116 793.998596,327.663269 
	C793.992432,323.756073 794.786438,320.881165 798.509644,319.180450 
	C807.469971,315.087402 810.315796,308.363220 809.667053,298.421478 
	C808.703430,283.653900 809.409546,268.776855 809.427368,253.946411 
	C809.429504,252.188828 809.571899,250.431396 809.674011,248.111435 
	C813.940918,250.738464 815.995483,253.505829 815.987976,258.129272 
	C815.884460,321.783356 815.848755,385.437866 816.022278,449.091675 
	C816.040344,455.701355 810.893860,456.778290 806.202454,459.601654 
	C806.202454,457.720917 806.202454,455.840210 806.202515,453.959473 
	C806.203369,422.298981 806.204407,390.638458 806.203918,358.977966 
	C806.203857,357.478333 806.450623,355.914215 806.101624,354.498657 
	C805.802551,353.285248 804.813843,352.241852 804.130127,351.123291 
	C803.156555,352.254669 801.809692,353.244995 801.314087,354.556946 
	C800.815674,355.876343 801.145081,357.515778 801.144836,359.014984 
	C801.140869,383.843323 801.142090,408.671661 801.142212,434.000000 
z"/>
<path fill="#BDBDBD" opacity="1.000000" stroke="none" 
	d="
M159.000031,621.123962 
	C171.164856,621.125244 182.831436,621.025330 194.492752,621.228638 
	C196.399734,621.261902 198.890869,622.106506 200.073776,623.474182 
	C205.494843,629.741882 210.546753,636.328796 216.608810,643.896667 
	C208.221664,643.896667 201.033340,644.125000 193.882355,643.709961 
	C192.397263,643.623779 190.721649,641.358582 189.704437,639.739197 
	C187.086868,635.571899 183.513428,634.522278 178.726608,634.548401 
	C145.232895,634.731140 111.736610,634.512451 78.244171,634.788513 
	C73.141449,634.830566 70.276558,633.211060 68.069115,628.865356 
	C65.661705,624.125977 62.568283,619.738220 60.086452,615.032349 
	C58.485424,611.996643 56.445923,610.770264 52.961433,610.882568 
	C45.470490,611.123840 37.964024,610.844971 30.468464,610.999756 
	C27.310127,611.064941 25.977522,610.107971 26.049356,606.755554 
	C26.337021,593.330688 24.513256,595.915222 36.588505,595.687866 
	C43.751480,595.552917 50.927647,595.873230 58.081135,595.580139 
	C61.804291,595.427551 63.857006,596.839600 65.499557,600.019470 
	C68.477066,605.783936 71.927361,611.304199 74.903412,617.069336 
	C76.488060,620.139038 78.557373,621.212952 82.012657,621.194885 
	C107.507874,621.061829 133.004105,621.123535 159.000031,621.123962 
z"/>
<path fill="#2E2E2E" opacity="1.000000" stroke="none" 
	d="
M25.996538,455.000000 
	C25.996548,405.342529 26.053600,356.184937 25.911375,307.027863 
	C25.896595,301.919678 27.632099,298.493805 32.744564,295.821869 
	C32.875225,297.998718 33.069004,299.722961 33.069286,301.447205 
	C33.084671,395.262970 33.084183,489.078705 33.080742,582.894470 
	C33.080696,584.226746 33.470085,585.821289 32.880806,586.826050 
	C32.112942,588.135376 30.638407,589.606323 29.293535,589.800659 
	C28.381697,589.932434 26.693996,588.171082 26.216087,586.925354 
	C25.655050,585.462891 26.001028,583.641907 26.000822,581.976379 
	C25.995623,539.817566 25.996630,497.658783 25.996538,455.000000 
z"/>
<path fill="#B9B9B9" opacity="1.000000" stroke="none" 
	d="
M60.537956,46.637520 
	C59.401031,48.457932 58.160816,49.834335 57.239513,51.398571 
	C54.861721,55.435711 51.475784,56.934204 46.826378,56.449314 
	C43.700443,56.123306 40.468590,56.170727 37.362991,56.609413 
	C36.128803,56.783749 35.107559,58.465591 33.989368,59.461113 
	C35.193382,60.084309 36.386627,61.221878 37.603153,61.247353 
	C45.593323,61.414635 53.588520,61.345657 61.582073,61.346798 
	C78.235413,61.349178 94.890533,61.214863 111.540840,61.439526 
	C115.736786,61.496143 118.953781,60.504532 121.552338,57.205647 
	C122.780281,55.646782 124.751366,54.581741 125.693321,52.904160 
	C131.415359,42.713490 140.743530,45.621483 149.301544,45.662090 
	C149.608994,46.066170 149.916443,46.470253 150.223907,46.874336 
	C145.982025,50.951035 141.259995,54.641598 137.603195,59.188805 
	C131.000336,67.399422 122.566902,68.297867 112.829865,68.077225 
	C89.527161,67.549187 66.204384,67.905937 42.889713,67.908379 
	C33.881569,67.909325 33.880058,67.912865 33.879623,77.183586 
	C33.878689,97.001060 33.879478,116.818527 33.879562,136.636002 
	C33.879570,138.594284 33.879566,140.552582 33.879566,143.861145 
	C29.866272,140.843323 26.099903,139.340347 26.094444,134.633087 
	C26.061033,105.823067 26.091831,77.012962 26.120466,48.202904 
	C26.121109,47.557415 26.349363,46.912151 26.631233,45.422070 
	C34.651131,45.422070 42.752060,45.342354 50.850075,45.461239 
	C54.096664,45.508904 57.336845,45.993408 60.537956,46.637520 
z"/>
<path fill="#303030" opacity="1.000000" stroke="none" 
	d="
M365.000000,45.034897 
	C373.492493,45.035053 381.484985,45.031025 389.477478,45.039188 
	C390.808807,45.040550 392.463104,44.603645 393.406281,45.223831 
	C395.589111,46.659168 397.427734,48.618023 399.405914,50.364597 
	C397.404663,51.230518 395.405579,52.846821 393.401917,52.852554 
	C344.115265,52.993515 294.828094,52.963776 245.541046,52.964207 
	C216.734756,52.964462 187.928436,52.972836 159.122177,52.945938 
	C157.055908,52.944008 154.989868,52.682404 152.390457,52.505180 
	C155.224625,46.766525 159.050034,44.935692 164.687744,44.947247 
	C231.291595,45.083759 297.895844,45.034904 365.000000,45.034897 
z"/>
<path fill="#BBBBBB" opacity="1.000000" stroke="none" 
	d="
M49.120522,209.000031 
	C49.120411,229.320648 49.065716,249.141571 49.175274,268.961578 
	C49.192986,272.165283 48.535099,274.523712 45.885544,276.692657 
	C39.516087,281.906769 33.454815,287.497345 27.075251,293.106567 
	C24.496597,283.833893 25.214325,279.973145 32.454582,275.272644 
	C39.678551,270.582733 41.847679,264.839355 41.634243,256.328217 
	C41.020634,231.859314 41.417881,207.365067 41.417595,182.880768 
	C41.417580,181.548294 41.692085,180.137817 41.344814,178.902512 
	C40.879879,177.248642 39.932240,175.730499 39.191864,174.154068 
	C38.243420,175.825912 36.683395,177.425140 36.474422,179.184799 
	C36.045273,182.798553 35.929844,186.554108 36.420345,190.151047 
	C37.483070,197.944229 32.304691,201.166962 26.444939,205.087006 
	C26.444939,184.948410 26.444939,165.561813 26.444939,144.868210 
	C31.286440,149.113373 35.212002,153.280792 39.827942,156.439240 
	C47.476299,161.672623 50.102676,168.300751 49.319382,177.536972 
	C48.449867,187.789871 49.120464,198.173370 49.120522,209.000031 
z"/>
<path fill="#BBBBBB" opacity="1.000000" stroke="none" 
	d="
M814.297485,141.931396 
	C813.208435,143.039322 812.513977,144.084946 811.541138,144.657196 
	C801.852539,150.356018 800.467163,159.147552 800.967834,169.502548 
	C801.659180,183.801315 801.064514,198.159668 801.236877,212.489899 
	C801.255310,214.023041 802.712769,215.538864 803.502747,217.062714 
	C804.398010,215.521912 805.929626,214.035065 806.065735,212.429886 
	C806.430603,208.127411 806.698975,203.702698 806.092773,199.456879 
	C805.000732,191.809372 809.759094,188.046265 815.449768,183.660110 
	C815.449768,204.368301 815.449768,224.397186 815.449768,245.504562 
	C809.737854,239.445358 804.775696,233.510422 799.101135,228.360458 
	C793.956116,223.691040 793.232117,218.273788 793.332092,211.836609 
	C793.637329,192.176041 793.539612,172.506866 793.369141,152.843048 
	C793.331665,148.515839 794.423889,145.510422 797.967773,142.623840 
	C803.847168,137.835022 809.055481,132.222443 814.546509,126.956863 
	C815.145569,127.145424 815.744690,127.333992 816.343750,127.522552 
	C815.750122,132.231491 815.156494,136.940445 814.297485,141.931396 
z"/>
<path fill="#8C8C8C" opacity="1.000000" stroke="none" 
	d="
M505.999084,45.282337 
	C512.434937,45.282845 518.371033,45.282845 524.327698,45.282845 
	C523.832886,54.781830 520.818237,57.764626 512.430725,57.765324 
	C487.486481,57.767399 462.542206,57.766472 437.597961,57.765728 
	C428.146454,57.765450 425.879425,56.050705 422.146057,45.281830 
	C450.173096,45.281830 477.836212,45.281830 505.999084,45.282337 
z"/>
<path fill="#2F2F2F" opacity="1.000000" stroke="none" 
	d="
M816.006653,113.676933 
	C816.258545,117.981270 814.872620,120.803474 810.416138,122.741684 
	C810.194214,120.287697 809.881165,118.409912 809.876770,116.531410 
	C809.837891,99.886238 809.855774,83.240929 809.850281,66.595665 
	C809.849731,64.931618 809.890808,63.261200 809.766785,61.604652 
	C809.210266,54.172348 808.112671,53.110474 800.568359,53.103783 
	C768.442993,53.075302 736.317627,53.089779 704.192261,53.088589 
	C702.239197,53.088516 700.286133,53.088581 698.006226,53.088581 
	C698.463379,48.064312 700.681519,45.866608 705.081299,45.867085 
	C740.369202,45.870899 775.657288,45.913548 810.944885,45.806267 
	C815.466980,45.792519 816.058228,48.141758 816.044373,51.798126 
	C815.966492,72.271530 816.007690,92.745377 816.006653,113.676933 
z"/>
<path fill="#8F8F8F" opacity="1.000000" stroke="none" 
	d="
M60.916321,644.085205 
	C50.606331,644.082825 40.781643,643.962769 30.962236,644.138184 
	C27.245523,644.204529 25.937284,642.804016 26.046326,639.172729 
	C26.231136,633.018311 26.200102,626.852356 26.066240,620.695435 
	C25.991432,617.254639 27.406860,615.948547 30.817612,616.024475 
	C37.473640,616.172791 44.136486,616.000610 50.793812,616.116333 
	C52.194744,616.140747 54.292713,616.383240 54.868256,617.288757 
	C60.174721,625.637451 65.217003,634.154053 71.220848,644.085205 
	C66.864723,644.085205 64.134224,644.085205 60.916321,644.085205 
z"/>
<path fill="#2F2F2F" opacity="1.000000" stroke="none" 
	d="
M239.000519,636.852234 
	C279.552124,636.851807 319.603912,636.851807 360.524658,636.851807 
	C357.784454,641.615356 355.151978,644.129089 350.306152,644.118530 
	C309.502991,644.029602 268.699463,644.035095 227.896225,644.117371 
	C223.399399,644.126404 220.725494,642.406982 219.395828,636.852661 
	C226.057526,636.852661 232.279114,636.852661 239.000519,636.852234 
z"/>
<path fill="#8F8F8F" opacity="1.000000" stroke="none" 
	d="
M26.089592,262.891235 
	C26.089575,248.447525 26.541908,234.466934 25.910276,220.535492 
	C25.561886,212.851242 29.437178,209.101410 35.879196,205.455719 
	C36.011684,207.747864 36.196102,209.478912 36.198635,211.210220 
	C36.221489,226.832169 35.804214,242.469528 36.391144,258.069427 
	C36.669746,265.474396 33.042435,268.903046 26.089457,272.191010 
	C26.089457,268.785553 26.089457,266.080200 26.089592,262.891235 
z"/>
<path fill="#8C8C8C" opacity="1.000000" stroke="none" 
	d="
M87.999969,56.211460 
	C78.935539,56.211807 70.371109,56.211807 61.468254,56.211807 
	C64.670464,47.932545 67.701599,45.686058 74.825859,45.682518 
	C88.987190,45.675484 103.148529,45.670815 117.309830,45.692364 
	C119.250420,45.695316 121.190788,45.853912 123.292366,45.947632 
	C120.530075,53.039650 116.135811,56.197632 109.492027,56.207790 
	C102.494690,56.218494 95.497330,56.210781 87.999969,56.211460 
z"/>
<path fill="#8F8F8F" opacity="1.000000" stroke="none" 
	d="
M84.161346,644.084473 
	C81.065910,643.611450 77.529922,645.410522 76.025108,640.508850 
	C78.023125,640.255066 79.711128,639.855408 81.399590,639.853516 
	C113.689926,639.816772 145.980453,639.789490 178.270416,639.905579 
	C180.598846,639.914001 182.923279,641.039001 185.249573,641.644897 
	C185.144150,642.458069 185.038742,643.271301 184.933319,644.084534 
	C151.501419,644.084534 118.069511,644.084534 84.161346,644.084473 
z"/>
<path fill="#989898" opacity="1.000000" stroke="none" 
	d="
M383.438599,615.988953 
	C384.977295,615.668152 386.986511,615.047546 388.995972,615.046814 
	C511.353302,615.000549 633.710693,615.005188 756.535950,614.971985 
	C754.603394,615.279785 752.203125,615.917908 749.802551,615.919006 
	C627.838135,615.973083 505.873657,615.972839 383.438599,615.988953 
z"/>
<path fill="#8C8C8C" opacity="1.000000" stroke="none" 
	d="
M808.223022,502.952087 
	C807.330322,501.968201 806.253540,500.854034 806.237427,499.724701 
	C806.102234,490.254761 806.230530,480.781372 806.137634,471.310425 
	C806.078918,465.321106 811.255371,464.318329 815.440063,460.637695 
	C815.664429,463.416992 815.911621,465.129028 815.922180,466.842499 
	C815.967102,474.153870 815.418091,481.514587 816.095215,488.763031 
	C816.726807,495.524139 814.345337,499.901398 808.223022,502.952087 
z"/>
<path fill="#8C8C8C" opacity="1.000000" stroke="none" 
	d="
M806.155518,177.668823 
	C806.155151,172.580841 806.683655,167.869354 806.034729,163.326050 
	C804.972107,155.886856 809.890137,152.880768 815.942993,148.323166 
	C815.942993,155.813110 815.432251,162.051361 816.073120,168.168991 
	C816.862671,175.705856 812.586121,179.632721 806.579224,183.956512 
	C806.404114,181.543961 806.279846,179.832397 806.155518,177.668823 
z"/>
<path fill="#7C7C7C" opacity="1.000000" stroke="none" 
	d="
M680.604370,74.013641 
	C679.713867,74.338768 678.349670,74.958855 676.985291,74.959541 
	C590.547913,75.003242 504.110504,74.997307 417.673126,74.982719 
	C416.852478,74.982582 416.031799,74.806496 414.905914,74.377357 
	C503.110687,74.034615 591.620667,74.027077 680.604370,74.013641 
z"/>
<path fill="#989898" opacity="1.000000" stroke="none" 
	d="
M403.637482,58.348244 
	C402.104950,58.334759 400.144806,58.019997 398.184509,58.019150 
	C314.468628,57.983078 230.752731,57.974934 146.577988,57.915615 
	C148.050552,57.586178 149.981842,57.059036 151.913406,57.058117 
	C233.662720,57.019070 315.412048,57.018612 397.161346,57.077724 
	C399.177765,57.079182 401.193634,57.805264 403.637482,58.348244 
z"/>
<path fill="#5F5F5F" opacity="1.000000" stroke="none" 
	d="
M789.305176,535.565186 
	C789.083313,498.940521 789.017090,461.950775 788.999329,424.961060 
	C788.982849,390.635895 789.018127,356.310699 789.069092,321.522491 
	C789.399048,323.176147 789.944031,325.292694 789.945435,327.409576 
	C789.989380,394.860046 789.984680,462.310547 789.959167,529.761047 
	C789.958496,531.574158 789.648071,533.387146 789.305176,535.565186 
z"/>
<path fill="#989898" opacity="1.000000" stroke="none" 
	d="
M214.381470,631.354614 
	C264.381683,631.059631 314.688995,631.040466 365.459045,631.051758 
	C364.506165,631.382874 363.090790,631.945129 361.674896,631.946472 
	C313.830505,631.992859 265.986084,631.988464 218.141647,631.971863 
	C216.990570,631.971497 215.839569,631.749207 214.381470,631.354614 
z"/>
<path fill="#5F5F5F" opacity="1.000000" stroke="none" 
	d="
M81.402878,616.276855 
	C120.371353,616.057312 159.698898,616.033325 199.490692,616.045654 
	C198.175842,616.387329 196.397110,616.956665 194.617554,616.959167 
	C158.476440,617.010681 122.335236,617.003540 86.194069,616.974792 
	C84.716560,616.973633 83.239311,616.647217 81.402878,616.276855 
z"/>
<path fill="#5F5F5F" opacity="1.000000" stroke="none" 
	d="
M128.597580,72.737122 
	C99.631500,72.947723 70.303642,72.968147 40.511856,72.950630 
	C41.660606,72.610916 43.272778,72.049377 44.886066,72.046127 
	C71.359337,71.992760 97.832756,72.002174 124.306091,72.033806 
	C125.616203,72.035370 126.925911,72.368309 128.597580,72.737122 
z"/>
<path fill="#8F8F8F" opacity="1.000000" stroke="none" 
	d="
M788.998291,224.638138 
	C788.666138,224.434113 788.050720,223.753769 788.051575,223.074158 
	C788.083313,197.162827 788.171570,171.251572 788.622437,145.098267 
	C788.995972,171.291534 788.999207,197.726852 788.998291,224.638138 
z"/>
<path fill="#5F5F5F" opacity="1.000000" stroke="none" 
	d="
M39.012043,73.352142 
	C39.167713,97.681480 39.084686,122.355659 38.962704,147.494171 
	C38.614693,146.356552 38.041142,144.755341 38.036522,143.152496 
	C37.973953,121.446266 37.975384,99.739769 38.021061,78.033463 
	C38.024105,76.587448 38.511326,75.142456 39.012043,73.352142 
z"/>
<path fill="#989898" opacity="1.000000" stroke="none" 
	d="
M804.290161,129.663132 
	C804.044189,106.313316 804.048523,82.630409 804.074524,58.480110 
	C804.379211,59.276203 804.905945,60.539139 804.908813,61.803265 
	C804.958069,83.500694 804.946960,105.198265 804.924377,126.895782 
	C804.923584,127.707344 804.674072,128.518631 804.290161,129.663132 
z"/>
<path fill="#989898" opacity="1.000000" stroke="none" 
	d="
M804.331421,307.631531 
	C804.053955,285.976044 804.049072,264.010071 804.093201,241.585922 
	C804.413452,242.397186 804.918030,243.666107 804.920837,244.936142 
	C804.964966,264.910645 804.948669,284.885254 804.924988,304.859833 
	C804.924072,305.680389 804.715637,306.500671 804.331421,307.631531 
z"/>
<path fill="#5F5F5F" opacity="1.000000" stroke="none" 
	d="
M757.285400,613.581116 
	C757.074890,596.623535 757.048584,579.302795 757.061462,561.518799 
	C757.334839,561.674072 757.775757,562.293579 757.773071,562.911133 
	C757.699585,579.680237 757.580750,596.449036 757.285400,613.581116 
z"/>
<path fill="#5F5F5F" opacity="1.000000" stroke="none" 
	d="
M53.176476,161.885574 
	C53.319881,161.906097 53.592571,162.158844 53.898438,162.690125 
	C53.722992,162.685059 53.514374,162.401428 53.176476,161.885574 
z"/>
<path fill="#5F5F5F" opacity="1.000000" stroke="none" 
	d="
M48.966423,281.151855 
	C49.015762,281.318298 48.815662,281.562256 48.311317,281.792328 
	C48.298428,281.633423 48.535065,281.450409 48.966423,281.151855 
z"/>
<path fill="#525252" opacity="1.000000" stroke="none" 
	d="
M781.109985,592.847656 
	C790.863037,589.125916 798.637512,590.948547 804.326050,598.024841 
	C809.662292,604.662781 810.008057,613.107483 805.165955,620.247803 
	C800.945251,626.471802 794.893860,629.112305 787.576233,628.320801 
	C779.514893,627.448853 774.073975,622.724487 771.630188,615.137512 
	C769.215149,607.639587 771.336548,601.025574 777.167175,595.697876 
	C778.264587,594.695129 779.566650,593.916382 781.109985,592.847656 
M801.776855,609.458862 
	C801.500427,603.740234 798.098083,600.206665 793.130981,598.414001 
	C788.758789,596.836121 784.590637,598.116089 781.138794,601.322021 
	C776.286255,605.828857 775.811279,613.015015 780.022461,617.962830 
	C784.452209,623.167542 790.323486,624.139709 795.933655,620.249756 
	C799.914246,618.014771 801.584778,614.520508 801.776855,609.458862 
z"/>
<path fill="#8F8F8F" opacity="1.000000" stroke="none" 
	d="
M795.259399,620.485657 
	C790.323486,624.139709 784.452209,623.167542 780.022461,617.962830 
	C775.811279,613.015015 776.286255,605.828857 781.138794,601.322021 
	C784.590637,598.116089 788.758789,596.836121 793.130981,598.414001 
	C798.098083,600.206665 801.500427,603.740234 801.320923,609.579529 
	C799.455688,608.714966 798.046509,607.729675 796.637268,606.744446 
	C796.074707,608.322021 795.543091,609.911682 794.938721,611.473022 
	C794.537354,612.509766 794.225098,613.666199 793.540222,614.493652 
	C790.154480,618.584473 790.167236,618.735535 795.259399,620.485657 
M789.588684,601.093628 
	C790.538879,602.396057 791.489075,603.698486 792.439270,605.000916 
	C793.178955,604.279358 793.918701,603.557800 794.658447,602.836243 
	C793.140503,602.088074 791.622620,601.339966 789.588684,601.093628 
z"/>
<path fill="#BDBDBD" opacity="1.000000" stroke="none" 
	d="
M795.596558,620.367676 
	C790.167236,618.735535 790.154480,618.584473 793.540222,614.493652 
	C794.225098,613.666199 794.537354,612.509766 794.938721,611.473022 
	C795.543091,609.911682 796.074707,608.322021 796.637268,606.744446 
	C798.046509,607.729675 799.455688,608.714966 801.176025,609.881226 
	C801.584778,614.520508 799.914246,618.014771 795.596558,620.367676 
z"/>
<path fill="#BBBBBB" opacity="1.000000" stroke="none" 
	d="
M789.846680,600.842712 
	C791.622620,601.339966 793.140503,602.088074 794.658447,602.836243 
	C793.918701,603.557800 793.178955,604.279358 792.439270,605.000916 
	C791.489075,603.698486 790.538879,602.396057 789.846680,600.842712 
z"/>
</svg>