<svg height="512" viewBox="0 0 64 64" width="512" xmlns="http://www.w3.org/2000/svg"><g id="_12-neptune" data-name="12-neptune"><circle cx="32" cy="32" fill="#2b7fc9" r="31"/><path d="m50.99219 7.50781a30.99157 30.99157 0 0 1 -43.4845 43.48426 30.99413 30.99413 0 1 0 43.4845-43.48426z" fill="#1d4ea1"/><path d="m42.001 29c-.02344 0-.04786-.001-.07227-.00244-14.166-1.01221-21.2832-6.98438-21.5791-7.23828a.99981.99981 0 0 1 1.2998-1.51953c.06836.05761 6.96289 5.80127 20.42188 6.76269a1.00007 1.00007 0 0 1 -.07031 1.99756z" fill="#5fb1d7"/><path d="m14.001 35a.99876.99876 0 0 1 -.165-.01367 35.46113 35.46113 0 0 1 -9.26953-3.03418.99979.99979 0 1 1 .86718-1.80176 33.46276 33.46276 0 0 0 8.73047 2.86328.99994.99994 0 0 1 -.16312 1.98633z" fill="#5fb1d7"/><path d="m46.001 57.3623a.99874.99874 0 0 1 -.80664-.40771c-4.19043-5.69824-13.01465-4.9668-13.10352-4.9585a1.00022 1.00022 0 0 1 -.18164-1.99218c.40918-.03516 10.04492-.832 14.89648 5.76611a.99971.99971 0 0 1 -.80468 1.59228z" fill="#5fb1d7"/><path d="m44.001 20a.99876.99876 0 0 1 -.165-.01367 39.4197 39.4197 0 0 1 -10.28321-3.0918.9999.9999 0 0 1 .89356-1.78906 38.20743 38.20743 0 0 0 9.71777 2.9082.99994.99994 0 0 1 -.16312 1.98633z" fill="#5fb1d7"/><g fill="#1d4ea1"><path d="m4.42334 17.84479a8.98722 8.98722 0 0 0 16.06305-1.87073c.171.0097.34021.02594.51361.02594a9.00014 9.00014 0 0 0 6.94275-14.72717 31.01141 31.01141 0 0 0 -23.51941 16.57196z"/><path d="m2.85248 42.57434a31.0121 31.0121 0 0 0 42.33905 17.481 12.0089 12.0089 0 0 0 -11.19153-7.05534 16.31252 16.31252 0 0 0 -10 4c-.10535-3.62738 1-8-3.769-8.93066a17.76368 17.76368 0 0 0 -3.92615-.79609 11.59853 11.59853 0 0 0 -9.80485-5.27325 11.94149 11.94149 0 0 0 -3.64752.57434z"/><path d="m62.25171 33.45752a9.28343 9.28343 0 0 0 .72809-.65857c.00677-.2663.0202-.531.0202-.79895a31.00772 31.00772 0 0 0 -22.18634-29.72125 4.98 4.98 0 0 0 1.3606 6.8424 6.97583 6.97583 0 0 0 6.95355 10.77985 18.69052 18.69052 0 0 0 -.12781 2.099 15.34818 15.34818 0 0 0 3.74829 10.54248c-2.82593 2.19252-4.74829 6.4997-4.74829 11.45752 0 4.80823 1.812 8.99652 4.49878 11.24554a30.916 30.916 0 0 0 10.41254-21.01422c-.21326-.2691-.42939-.53412-.65961-.7738z"/><path d="m40.81366 2.27875a4.98 4.98 0 0 0 1.3606 6.8424 6.97583 6.97583 0 0 0 6.95355 10.77985 18.69052 18.69052 0 0 0 -.12781 2.099 15.34818 15.34818 0 0 0 3.74829 10.54248c-2.82593 2.19252-4.74829 6.4997-4.74829 11.45752 0 4.80823 1.812 8.99652 4.49878 11.24554l.00012-.00012a30.97131 30.97131 0 0 0 9.528-15.58429l.016.00421a30.84128 30.84128 0 0 0 .70843-11.53173l-.01672.00268a31.01087 31.01087 0 0 0 -21.92095-25.85754z"/></g><path d="m39.93213 54.44653a31.00837 31.00837 0 0 1 -32.41736-3.44891 30.99 30.99 0 0 0 37.67676 9.05768 11.38421 11.38421 0 0 0 -5.2594-5.60877z" fill="#1d2ca1"/><path d="m62.7514 28.13361-.01672.00268a30.9697 30.9697 0 0 0 -11.70685-20.58313 30.97965 30.97965 0 0 1 -2.49963 40.754 13.04731 13.04731 0 0 0 3.97058 6.93835l.00012-.00012a30.97131 30.97131 0 0 0 9.528-15.58429l.016.00421a30.84128 30.84128 0 0 0 .70843-11.53173z" fill="#1d2ca1"/><path d="m32 0a32 32 0 1 0 32 32 32.03635 32.03635 0 0 0 -32-32zm13.47919 58.7887c-4.52838-7.69269-15.10724-6.82691-15.57-6.78479a1.00018 1.00018 0 0 0 .18066 1.99218c.09668-.0094 9.59436-.76532 13.56256 5.64808a29.99748 29.99748 0 0 1 -39.27295-15.93793c2.50311-.49054 8.6322-1.14 10.70159 3.6878a.98554.98554 0 0 0 1.01661.60108c.04-.00293 3.94531-.35059 5.94726 1.86621 1.17481 1.30127 1.50293 3.30078.97461 5.94238a.99993.99993 0 1 0 1.96094.39258c.66015-3.30274.16894-5.88818-1.46-7.68457-2.09766-2.313-5.41211-2.55176-6.90332-2.53955-2.66848-5.0777-9.13082-5.05487-12.96515-4.17317a29.79477 29.79477 0 0 1 -1.60071-8.09766 35.74151 35.74151 0 0 0 9.78461 3.285.99988.99988 0 1 0 .32812-1.97266 34.60305 34.60305 0 0 1 -10.14937-3.59022 29.97981 29.97981 0 0 1 37.82617-28.37707 5.71323 5.71323 0 0 0 .93262 6.08935 8.24553 8.24553 0 0 0 -.72168 6.18067.99964.99964 0 1 0 1.89648-.63282c-.82812-2.48535.86817-5.105.88379-5.1289a.99977.99977 0 0 0 -.12503-1.26169 3.72713 3.72713 0 0 1 -.92828-4.64783 29.98549 29.98549 0 0 1 3.70047 55.14353z"/><path d="m20.65918 17.02832c1.64062.01709 5.61914-.22656 8.17285-2.80371 1.74512-1.76074 2.47266-4.2251 2.16309-7.32422a1.00009 1.00009 0 0 0 -1.99024.19922c.24707 2.47314-.28711 4.39453-1.58789 5.71143-2.5498 2.58007-7.28222 2.19775-7.32812 2.19287a1.0055 1.0055 0 0 0 -1.02539.645c-2.6211 6.98877-10.41895 4.51074-10.749 4.40185a1 1 0 0 0 -.63086 1.898 13.04035 13.04035 0 0 0 4.01465.62647 9.24855 9.24855 0 0 0 8.96091-5.54691z"/><path d="m54.375 31.07324a7.57119 7.57119 0 0 1 -4.375-7.07324 23.55908 23.55908 0 0 1 1.89551-9.5542 1.00023 1.00023 0 0 0 -1.79-.89307 25.11216 25.11216 0 0 0 -2.10551 10.44727 9.49872 9.49872 0 0 0 4.18555 8.12207 15.71435 15.71435 0 0 0 -5.17578 9.73633c-1.04 7.28467 1.042 9.60791 1.2832 9.84863a.97209.97209 0 0 0 .69043.28711 1.00613 1.00613 0 0 0 .74512-1.6792c-.01661-.01855-1.63086-1.93066-.73829-8.17334a13.24777 13.24777 0 0 1 5.52442-9.28418 1.00139 1.00139 0 0 0 -.13965-1.78418z"/><path d="m27.81348 37.05518c-1.33692-4.78174-6.99024-5.41211-9.9375-5.04737a.99991.99991 0 0 0 .248 1.98438c.06934-.00928 7.05664-.82373 7.88965 4.17236a1.0028 1.0028 0 0 0 .98344.83545c.03125 0 3.13379.04 4.875 2.023a5.957 5.957 0 0 1 1.13574 4.853 1.00008 1.00008 0 0 0 .86817 1.11621.98765.98765 0 0 0 .12502.00779 1.00045 1.00045 0 0 0 .99121-.876 7.84456 7.84456 0 0 0 -1.62891-6.43359 8.806 8.806 0 0 0 -5.54982-2.63523z"/><path d="m42.07129 29.00244c-13.459-.96142-20.35352-6.70508-20.42188-6.76269a.99981.99981 0 0 0 -1.2998 1.51953c.2959.2539 7.41309 6.22607 21.5791 7.23828.02441.00146.04883.00244.07227.00244a1.00007 1.00007 0 0 0 .07031-1.99756z"/><path d="m44.16406 20.01367a38.20743 38.20743 0 0 1 -9.71777-2.9082.9999.9999 0 0 0 -.89356 1.78906 39.4197 39.4197 0 0 0 10.28321 3.0918.99988.99988 0 1 0 .32812-1.97266z"/></g></svg>