<svg height="512" viewBox="0 0 64 64" width="512" xmlns="http://www.w3.org/2000/svg"><g id="_13-pluto" data-name="13-pluto"><circle cx="32" cy="32" fill="#93b1d7" r="31"/><path d="m51.82727 8.17273a30.99735 30.99735 0 0 1 -43.65472 43.65427 30.998 30.998 0 1 0 43.65472-43.65427z" fill="#7d97b8"/><path d="m34 11c10 0 11 3 12 9 .90643 5.43878 5.94116 14.144 16.554 17.21844a31.00978 31.00978 0 0 0 -36.92619-35.55987c-.01264 3.84503 1.21856 9.34143 8.37219 9.34143z" fill="#7598b2"/><path d="m51.82727 8.17273a31.00067 31.00067 0 0 1 6.26837 27.26434 24.93524 24.93524 0 0 0 4.45836 1.78137 30.95607 30.95607 0 0 0 -10.72673-29.04571z" fill="#617e94"/><ellipse cx="19" cy="14" fill="#7598b2" rx="5" ry="4"/><path d="m30 49c-10.1286-2.53217 7.80627-16.59686-5-23-9.92224-4.96112-18.83411 6.14618-23.18719 13.04047a30.98994 30.98994 0 0 0 47.088 18.94195c4.34602-22.25329-11.31823-7.08679-18.90081-8.98242z" fill="#7598b2"/><path d="m28 59a30.87148 30.87148 0 0 1 -19.79279-7.14294 30.97276 30.97276 0 0 0 40.69355 6.12536 28.67632 28.67632 0 0 0 .68744-7.74542 30.89018 30.89018 0 0 1 -21.5882 8.763z" fill="#617e94"/><circle cx="38" cy="27" fill="#7598b2" r="4"/><circle cx="54" cy="41" fill="#7598b2" r="3"/><g fill="#93b1d7"><circle cx="55" cy="23" r="2"/><circle cx="18" cy="52" r="2"/><circle cx="35" cy="56" r="3"/><circle cx="17" cy="38" r="5"/></g><path d="m32 0a32 32 0 1 0 32 32 32.036 32.036 0 0 0 -32-32zm30 32a30.10048 30.10048 0 0 1 -.26233 3.90356c-9.89606-2.23864-13.9798-11.43884-14.75134-16.06811-1.01612-6.09815-2.1875-9.83545-12.98633-9.83545-2.76514 0-4.75635-.73047-5.91846-2.17188a7.276 7.276 0 0 1 -1.143-5.39245 29.96982 29.96982 0 0 1 35.06146 29.56433zm-59.07593 7.39337c.67859-1.23785 10.06079-17.83954 21.657-12.48517 6.18213 2.853 4.47266 7.61524 2.66211 12.65625-1.08837 3.03125-2.1167 5.89453-.97021 8.042a5.02226 5.02226 0 0 0 3.48437 2.36328c2.90381.72949 6.37549-.5752 9.73145-1.835 3.16406-1.18653 6.43457-2.415 7.91064-1.19239 1.41071 1.16925 1.64472 4.65393.70386 10.34955a29.97205 29.97205 0 0 1 -45.17922-17.89852zm47.44093 16.30316c.72174-5.52606.18091-8.74408-1.68976-10.29419-2.36816-1.96191-6.02148-.59179-9.88916.86036-3.06933 1.15136-6.2456 2.33789-8.54345 1.76757a3.19159 3.19159 0 0 1 -2.20557-1.36621c-.72852-1.36426.1543-3.82226 1.08838-6.42383 1.74712-4.86523 4.13921-11.52734-3.70644-15.14843-5.72217-2.64112-11.77051-1.10547-17.49024 4.44043a39.42594 39.42594 0 0 0 -5.59325 6.94577 30.00022 30.00022 0 0 1 22.53973-33.616 8.83943 8.83943 0 0 0 1.63843 6.20788c1.55957 1.94428 4.07813 2.93012 7.48633 2.93012 9.65283 0 10.10742 2.72852 11.01367 8.16455 1.18451 7.10657 6.82025 15.60553 16.40326 17.72a30.03439 30.03439 0 0 1 -11.05193 17.81198z"/><path d="m19 9c-3.30859 0-6 2.24316-6 5s2.69141 5 6 5 6-2.24316 6-5-2.69141-5-6-5zm0 8c-2.20557 0-4-1.3457-4-3s1.79443-3 4-3 4 1.3457 4 3-1.79443 3-4 3z"/><path d="m22 37a.99974.99974 0 0 0 -1 1 4 4 0 1 1 -4-4 1 1 0 0 0 0-2 6 6 0 1 0 6 6 .99974.99974 0 0 0 -1-1z"/><path d="m38 22a5 5 0 1 0 5 5 5.00588 5.00588 0 0 0 -5-5zm0 8a3 3 0 1 1 3-3 3.00328 3.00328 0 0 1 -3 3z"/><path d="m35 52a4 4 0 1 0 4 4 4.00427 4.00427 0 0 0 -4-4zm0 6a2 2 0 1 1 2-2 2.00229 2.00229 0 0 1 -2 2z"/><path d="m55 26a3.00328 3.00328 0 0 0 3-3 1 1 0 0 0 -2 0 1 1 0 1 1 -1-1 1 1 0 0 0 0-2 3 3 0 0 0 0 6z"/><path d="m20 51a.99974.99974 0 0 0 -1 1 1 1 0 1 1 -1-1 1 1 0 0 0 0-2 3 3 0 1 0 3 3 .99974.99974 0 0 0 -1-1z"/><path d="m54 37a4.00427 4.00427 0 0 0 -4 4 1 1 0 0 0 2 0 2 2 0 1 1 2 2 1 1 0 0 0 0 2 4 4 0 0 0 0-8z"/></g></svg>