<svg xmlns="http://www.w3.org/2000/svg" viewBox="0 0 204.12 194.79"><defs><style>.cls-1,.cls-11{fill:#ef5b66;}.cls-1,.cls-10,.cls-12,.cls-13,.cls-2,.cls-6,.cls-7{stroke:#231f20;}.cls-1,.cls-10,.cls-2,.cls-5,.cls-7,.cls-9{stroke-linecap:round;}.cls-1,.cls-10,.cls-2,.cls-5,.cls-7{stroke-linejoin:round;}.cls-1,.cls-10,.cls-12,.cls-2,.cls-5,.cls-6,.cls-7{stroke-width:2px;}.cls-2,.cls-5{fill:none;}.cls-10,.cls-3{fill:#5a2652;}.cls-4{fill:#a7415c;}.cls-5{stroke:#716243;}.cls-6{fill:#716243;}.cls-12,.cls-13,.cls-6,.cls-9{stroke-miterlimit:10;}.cls-7{fill:#262e31;}.cls-8{fill:#533418;}.cls-9{fill:#fff;stroke:#fff;stroke-width:0.5px;}.cls-12{fill:#2e3a3f;}.cls-13{fill:#0e1010;}.cls-14{fill:#44545c;}.cls-15{fill:#576a72;}</style></defs><g id="Layer_2" data-name="Layer 2"><g id="Layer_2-2" data-name="Layer 2"><path class="cls-1" d="M66.12,151.82l21.21,24.25L63.11,193.79,43,170.87Z"/><path class="cls-2" d="M91.62,108.67c-8.38-2.19-12.52-3.24-20.71-5.22l-4,3.77,22.32,25.46,4.08-3.29C92.69,121.21,92.37,117.07,91.62,108.67Z"/><path class="cls-2" d="M74,106"/><path class="cls-2" d="M93.26,129.39"/><path class="cls-2" d="M70,104.28"/><path class="cls-2" d="M93.26,129.39,70.91,103.45"/><path class="cls-3" d="M66,153.23l19.83,22.66c-9,6.63-13.52,10-22.54,16.57"/><path class="cls-4" d="M65.94,155.74l17.27,19.74L63.48,190.09,47,171.23Z"/><path class="cls-1" d="M44.92,127.6l21.2,24.22L43,170.87,23,148Z"/><path class="cls-3" d="M44.84,129.05l19.82,22.64-21.49,17.8"/><path class="cls-4" d="M44.85,131.64l17.26,19.72c-7.52,6.28-11.29,9.41-18.81,15.68L26.8,148.2Z"/><path class="cls-1" d="M66.86,107.22Q78,120,89.19,132.76L66.12,151.82,44.92,127.6Z"/><path class="cls-3" d="M66.82,108.71,87.7,132.59,66.22,150.4"/><path class="cls-4" d="M66.89,111.38l18.19,20.8-18.8,15.7L48.85,128Z"/><path class="cls-1" d="M23,148,43,170.87l-23.11,19Q10.47,179.09,1,168.3,12,158.14,23,148Z"/><path class="cls-3" d="M22.86,149.36l18.75,21.42-21.5,17.77"/><path class="cls-4" d="M22.79,151.87l16.33,18.65L20.3,186.19c-6.23-7.11-9.35-10.66-15.57-17.77C12,161.81,15.57,158.5,22.79,151.87Z"/><path class="cls-1" d="M23.75,103.4l21.17,24.2L23,148l-20-22.88Z"/><path class="cls-3" d="M23.71,104.89l19.8,22.63-20.43,19"/><path class="cls-4" d="M23.77,107.55,41,127.26,23.14,144,6.65,125.19C13.5,118.14,16.93,114.61,23.77,107.55Z"/></g><g id="Layer_7" data-name="Layer 7"><polyline class="cls-2" points="93.81 74.64 78.67 65.83 83.89 79.24"/><line class="cls-2" x1="87.98" y1="77.91" x2="78.67" y2="65.83"/><line class="cls-5" x1="63.16" y1="88.41" x2="66.36" y2="82.14"/><line class="cls-2" x1="72.16" y1="89.79" x2="60.57" y2="82.82"/><circle class="cls-6" cx="58.18" cy="81.63" r="2.39"/></g><g id="Layer_3" data-name="Layer 3"><polygon class="cls-7" points="83.89 113.2 104.24 96.12 123.26 105.73 103.11 121.48 83.89 113.2"/><polyline class="cls-7" points="75.45 91.36 95.8 74.28 114.83 83.9"/><polyline class="cls-7" points="95.8 74.28 114.83 83.9 123.26 105.73 104.24 96.12 95.8 74.28 75.45 91.41 83.89 113.24 83.89 113.2 104.24 96.12"/></g><g id="Layer_4" data-name="Layer 4"><polygon class="cls-8" points="109.75 94.55 108.08 90.36 112.23 92.45 113.5 96.12 109.75 94.55"/><polygon class="cls-8" points="117.03 101.07 115.36 96.88 119.52 98.97 120.78 102.64 117.03 101.07"/><polygon class="cls-8" points="115.17 96.08 113.5 91.89 117.65 93.99 118.92 97.65 115.17 96.08"/><polygon class="cls-8" points="113.3 91.11 111.63 86.91 115.79 89.01 117.05 92.68 113.3 91.11"/><line class="cls-9" x1="109.95" y1="93.72" x2="112.51" y2="94.86"/><line class="cls-9" x1="109.26" y1="91.86" x2="111.97" y2="93.24"/><line class="cls-9" x1="113.49" y1="90.26" x2="116.04" y2="91.4"/><line class="cls-9" x1="112.79" y1="88.41" x2="115.5" y2="89.79"/><line class="cls-9" x1="115.34" y1="95.21" x2="117.9" y2="96.35"/><line class="cls-9" x1="114.65" y1="93.36" x2="117.36" y2="94.74"/><line class="cls-9" x1="117.22" y1="100.22" x2="119.78" y2="101.37"/><line class="cls-9" x1="116.53" y1="98.37" x2="119.24" y2="99.75"/></g><g id="Layer_8" data-name="Layer 8"><path class="cls-10" d="M136.39,46.33,115.48,22.87Q125.8,12,136.11,1l22,24.77Q147.29,36.06,136.39,46.33Z"/><path class="cls-2" d="M111,89.41c7.56,1.17,11.39,1.81,19.14,3.2l4.24-3.55L114.61,67l-3.86,3.55C111,78.17,111,82,111,89.41Z"/><path class="cls-2" d="M127.42,90.44"/><path class="cls-2" d="M110.75,70.5"/><path class="cls-2" d="M131.09,91.83"/><path class="cls-2" d="M110.75,70.5l19.41,22.11"/><path class="cls-11" d="M136.47,44.9l-19.62-22L136.11,2.53"/><path class="cls-4" d="M136.46,42.33,119.26,23l17-17.8c7.19,8.06,10.78,12.1,18,20.17Z"/><path class="cls-10" d="M157.33,69.83l-20.94-23.5q10.89-10.28,21.77-20.56l22.08,24.8Z"/><path class="cls-11" d="M157.45,68.44l-19.65-22c8.13-7.65,12.2-11.47,20.32-19.13"/><path class="cls-4" d="M157.5,65.94,140.28,46.61l17.9-16.73,18,20.2Z"/><path class="cls-10" d="M134.4,89.06Q124.5,78,114.61,66.87q10.89-10.26,21.78-20.54l20.94,23.5Z"/><path class="cls-11" d="M134.55,87.71,116,66.89c8.15-7.64,12.21-11.46,20.35-19.11"/><path class="cls-4" d="M134.67,85.29,118.39,67,136.3,50.32l17,19.13C145.88,75.79,142.15,79,134.67,85.29Z"/><path class="cls-10" d="M180.24,50.57l-22.08-24.8Q169,15.48,179.9,5.18l23.22,26.11Z"/><path class="cls-11" d="M180.32,49.14,159.6,25.87c8.12-7.66,12.19-11.49,20.3-19.16"/><path class="cls-4" d="M180.3,46.56,162.15,26.17c7.15-6.7,10.73-10,17.87-16.76l18.92,21.27C191.49,37,187.76,40.21,180.3,46.56Z"/><path class="cls-10" d="M178.29,93.35l-21-23.52,22.91-19.26,22.1,24.83Q190.33,84.39,178.29,93.35Z"/><path class="cls-11" d="M178.44,92q-9.83-11-19.67-22.07c8.56-7.16,12.84-10.74,21.39-17.91"/><path class="cls-4" d="M178.56,89.57,161.32,70.23c7.54-6.26,11.3-9.4,18.83-15.66l18,20.22Z"/></g><g id="Layer_5" data-name="Layer 5"><ellipse class="cls-12" cx="83.48" cy="91.89" rx="13.4" ry="14.56"/><circle class="cls-13" cx="106.28" cy="112.99" r="0.97"/><ellipse class="cls-14" cx="82.46" cy="90.81" rx="11.35" ry="12.33"/><ellipse class="cls-15" cx="77.89" cy="86.59" rx="5.49" ry="5.96"/></g></g></svg>