<svg xmlns="http://www.w3.org/2000/svg" viewBox="0 0 145.97 131.29"><defs><style>.cls-1{fill:#393d5b;}.cls-1,.cls-10,.cls-11,.cls-12,.cls-13,.cls-14,.cls-4,.cls-5,.cls-6,.cls-7,.cls-8,.cls-9{stroke:#231f20;stroke-miterlimit:10;}.cls-1,.cls-13{stroke-width:2px;}.cls-2{fill:#957353;}.cls-3,.cls-7{fill:#2b2e47;}.cls-4{fill:#989aa0;}.cls-5{fill:#707079;}.cls-6{fill:#191e33;}.cls-8{fill:#2c2836;}.cls-9{fill:#313856;}.cls-10{fill:#282331;}.cls-11{fill:#2f3048;}.cls-12{fill:#1a141a;}.cls-13{fill:#1a2035;}.cls-14{fill:#e0b985;}</style></defs><g id="Layer_2" data-name="Layer 2"><g id="Layer_2-2" data-name="Layer 2"><path class="cls-1" d="M102.32,3.38s23.17,2.54,40,48.86S90.74,125.77,83,128.42s-32.39,8.51-65.5-33.65S7.68,21.12,30.85,11.16s13.21-8.09,25-9.77,12.12,2.72,36.55,0C92.37,1.39,95.5.91,102.32,3.38Z"/></g><g id="Layer_6" data-name="Layer 6"><path class="cls-2" d="M102,4.26s26.46,2,23.48,49.13c-.82,12.92-26.8,15.1-34.2,17.71S78.56,90,46.58,90C20.91,90,26.5,51.31,38.44,34.67c6-8.33-12.13-20.77.72-22.46C94.44,4.94,49.38,5.21,93.62,2,93.62,2,95.54,1.84,102,4.26Z"/></g><g id="Layer_5" data-name="Layer 5"><path class="cls-3" d="M104.78,4.21l.45.16C107,5,119.13,8.62,131.11,29.2c3.4,5.85,8.47,15.14,11.22,23.64C157.68,100.35,91.1,123.78,84,127c-6.1,2.82-35.46,10.68-59.79-33.21C11.8,71.38,18.78,37.17,39.16,35.09c15.92-1.63,16.85-20.8,28-22.44S72.31,5,95.57,2.36A32.26,32.26,0,0,1,104.78,4.21Z"/></g><g id="Layer_3" data-name="Layer 3"><ellipse class="cls-4" cx="41.19" cy="71.1" rx="16.29" ry="20.3" transform="translate(-20.2 16.49) rotate(-18.26)"/><ellipse class="cls-5" cx="85.59" cy="40.47" rx="25.7" ry="21.84"/><ellipse class="cls-6" cx="35.21" cy="98.36" rx="2.17" ry="3.18" transform="translate(-68.71 87.59) rotate(-64.39)"/><circle class="cls-7" cx="62.32" cy="83.42" r="3.76"/><circle class="cls-8" cx="67.56" cy="95.42" r="2.94"/><ellipse class="cls-9" cx="68.55" cy="119.11" rx="2.8" ry="4.02" transform="translate(-65.63 148.81) rotate(-72.56)"/><circle class="cls-10" cx="87.65" cy="91.19" r="2.94"/><circle class="cls-11" cx="103.8" cy="75.31" r="2.94"/><ellipse class="cls-12" cx="95.04" cy="110.47" rx="4.66" ry="3.58" transform="translate(-50.28 99.56) rotate(-45)"/><circle class="cls-13" cx="108.35" cy="17.22" r="2.94"/><circle class="cls-14" cx="46.58" cy="18.22" r="1.73"/></g></g></svg>