<?xml version="1.0"?>
<svg xmlns="http://www.w3.org/2000/svg" viewBox="0 0 64 64" width="512" height="512"><g id="_3-sun" data-name="3-sun"><path d="M25,4a13.83434,13.83434,0,0,1,7-2c4,0,5-1,5-1s3,2,3,4c0,0,9-4,15,0,0,0-5,3-3,7,0,0,7-1,11,3,0,0-3,2-3,4s3,4,3,4a7.651,7.651,0,0,0-2,5c0,3,2,7,2,7s-3,1-3,5,3,5,3,9-5,8-5,8,0-3-4-3-5,5,0,9c0,0-9,0-10-4,0,0-2,3-7,4,0,0-4-3-12-3-6,0-9,3-9,3s1-6-4-8c-4.64238-1.85695-9,3-9,3s-1-2,2-6-3-7-3-7a21.79857,21.79857,0,0,0,1-6,12.67655,12.67655,0,0,0-2-6s3-3,3-6-3-5-3-5a30.78771,30.78771,0,0,1,6-6S1,10,5,4c0,0,3.14835,5.23443,8,2a4.447,4.447,0,0,0,2-5S24,1,25,4Z" style="fill:#ef4136"/><circle cx="32" cy="32" r="25" style="fill:#ffb028"/><path d="M47.00018,11.99982A25.00032,25.00032,0,0,1,11.99982,47.00018,25.00021,25.00021,0,1,0,47.00018,11.99982Z" style="fill:#ec6f1d"/><path d="M32,6.008a26,26,0,1,0,26,26A26.02948,26.02948,0,0,0,32,6.008Zm0,50a24,24,0,1,1,24-24A24.0275,24.0275,0,0,1,32,56.008Z"/><path d="M62.35742,43.99338A7.06754,7.06754,0,0,1,61,40.008c0-3.1875,2.231-4.0205,2.31641-4.05127a1.0003,1.0003,0,0,0,.57812-1.396C63.87549,34.52316,62,30.74045,62,28.008a6.712,6.712,0,0,1,1.707-4.293,1.001,1.001,0,0,0-.15137-1.53858C62.72168,21.61789,61,20.10763,61,19.008s1.72168-2.60986,2.55566-3.16845A1.001,1.001,0,0,0,63.707,14.301c-3.52246-3.52246-9.01416-3.50879-11.05469-3.36181-.79248-2.81836,2.70411-4.978,2.86231-5.07373a1.00024,1.00024,0,0,0,.04-1.68946C50.395.737,43.40625,2.69015,40.708,3.657A9.35269,9.35269,0,0,0,37.55469.176,1.82356,1.82356,0,0,0,37,0a1.52162,1.52162,0,0,0-.66455.26144C36.32617.26877,35.355,1.008,32,1.008a14.8976,14.8976,0,0,0-6.66064,1.65674C23.08838.14914,15,0,15,0a1.87883,1.87883,0,0,0-.80469.42062,1.00821,1.00821,0,0,0-.14648.89551A3.40953,3.40953,0,0,1,12.44531,5.176a4.27919,4.27919,0,0,1-3.335.80371A5.95014,5.95014,0,0,1,5.85693,3.4924a.99973.99973,0,0,0-.83349-.48389.93838.93838,0,0,0-.85547.44483c-3.13818,4.70752-.80615,9.74414,1.34912,12.397A34.17046,34.17046,0,0,0,.2002,21.40793,1.92272,1.92272,0,0,0,0,22.175a1.95059,1.95059,0,0,0,.44287.66357C.46826,22.85568,3,24.593,3,27.008,3,29.5505.31885,32.27463.292,32.302a.99973.99973,0,0,0-.124,1.26074A11.65187,11.65187,0,0,1,2,39.008a20.95464,20.95464,0,0,1-.94873,5.68457,1.00037,1.00037,0,0,0,.50146,1.21c.76954.38476,2.84864,1.73388,3.22754,3.33837a2.53524,2.53524,0,0,1-.58007,2.167c-3.27637,4.36816-2.2251,6.78613-2.09473,7.04736a1.00091,1.00091,0,0,0,1.63769.22168c.03907-.04346,3.95557-4.313,7.88526-2.74023,4.17773,1.67089,3.41894,6.69628,3.38525,6.90673a.99794.99794,0,0,0,.52588,1.04932A.98678.98678,0,0,0,16,64a.997.997,0,0,0,.7036-.28153C16.731,63.69162,19.5332,61.008,25,61.008c7.51807,0,11.36523,2.77442,11.3999,2.79981A1.759,1.759,0,0,0,37,64s5.63037-2.17508,6.77051-3.24491C46.22705,63.90549,54,64,54,64s.80322-.26.94385-.66092a1,1,0,0,0-.31934-1.11182c-2.648-2.11865-3.34765-4.45166-2.86621-5.82422A2.16434,2.16434,0,0,1,54,55.008c2.79932,0,2.99023,1.67774,3,2a.99981.99981,0,0,0,1.62451.78077C58.84424,57.61349,64,53.43771,64,49.008A9.02507,9.02507,0,0,0,62.35742,43.99338ZM58.50049,55.20285C57.86182,54.073,56.523,53.008,54,53.008a4.137,4.137,0,0,0-4.12891,2.73291c-.65039,1.854-.05224,4.08106,1.5376,6.08936-2.63623-.32666-5.96484-1.17041-6.43848-3.06494a.99991.99991,0,0,0-.79541-.73926,1.0124,1.0124,0,0,0-1.00341.42236,10.02271,10.02271,0,0,1-5.96778,3.49317C35.97266,61.16867,31.9126,59.008,25,59.008a15.611,15.611,0,0,0-7.93066,2.00049,7.68518,7.68518,0,0,0-4.69776-6.9292c-3.32226-1.32763-6.4209.25489-8.29394,1.64405A10.80906,10.80906,0,0,1,5.7998,52.60812a4.47038,4.47038,0,0,0,.92676-3.82666c-.48633-2.06152-2.45166-3.55469-3.54394-4.24414A22.00412,22.00412,0,0,0,4,39.008a12.8791,12.8791,0,0,0-1.76025-5.87744C3.17432,32.03781,5,29.57443,5,27.008A7.2337,7.2337,0,0,0,2.39941,21.8508a27.21453,27.21453,0,0,1,5.15528-5.01074A1.00185,1.00185,0,0,0,7.7085,15.302c-.20313-.20459-4.57715-4.69434-2.55323-9.48926A7.09118,7.09118,0,0,0,8.66064,7.92892a6.19071,6.19071,0,0,0,4.89405-1.08886,5.51868,5.51868,0,0,0,2.60888-4.80518c3.2627.146,7.41895.88379,7.8877,2.28955a1.002,1.002,0,0,0,1.50146.51709A12.9546,12.9546,0,0,1,32,3.008a11.81043,11.81043,0,0,0,4.94141-.80175C37.8208,2.907,39,4.09787,39,5.008a1.00015,1.00015,0,0,0,1.40527.91407c.07911-.03467,7.33692-3.18457,12.749-.78955-1.79688,1.582-3.56885,4.28271-2.04883,7.32275a1.008,1.008,0,0,0,1.03467.543c.05957-.0083,5.60156-.74707,9.27929,1.9668C60.396,15.8464,59,17.35226,59,19.008c0,1.74268,1.54639,3.31934,2.57715,4.17676A8.50629,8.50629,0,0,0,60,28.008a18.4909,18.4909,0,0,0,1.69482,6.55713A6.1367,6.1367,0,0,0,59,40.008a9.02507,9.02507,0,0,0,1.64258,5.01465A7.06754,7.06754,0,0,1,62,49.008C62,51.37277,59.86963,53.85324,58.50049,55.20285Z"/><path d="M13,32.008a18.85563,18.85563,0,0,1,7.60059-15.20019,1.0002,1.0002,0,0,0-1.20118-1.59961A20.83969,20.83969,0,0,0,11,32.008a1,1,0,0,0,2,0Z"/><path d="M13.94971,37.695a1,1,0,0,0-1.89942.626,21.491,21.491,0,0,0,1.90576,4.19531.99971.99971,0,1,0,1.72168-1.0166A19.50686,19.50686,0,0,1,13.94971,37.695Z"/><path d="M32,51.008a18.91739,18.91739,0,0,1-14.24463-6.65478,1,1,0,1,0-1.51172,1.30957A20.91474,20.91474,0,0,0,32,53.008a1,1,0,0,0,0-2Z"/><path d="M32,11.008a19.366,19.366,0,0,0-6.313,1.0503,1,1,0,1,0,.626,1.89941A17.4582,17.4582,0,0,1,32,13.008a19.27951,19.27951,0,0,1,18.06348,12.3501.99982.99982,0,1,0,1.873-.70019A21.28727,21.28727,0,0,0,32,11.008Z"/><rect x="51" y="28" width="2" height="2"/></g></svg>
