<?xml version="1.0"?>
<svg xmlns="http://www.w3.org/2000/svg" viewBox="0 0 64 64" width="512" height="512"><g id="_11-uranus" data-name="11-uranus"><circle cx="32" cy="32" r="19.99526" style="fill:#6ee1ef"/><path d="M51.39478,27.13654a19.90318,19.90318,0,0,0-7.37714-11.1081,19.99141,19.99141,0,0,1-28.03534,27.943,19.99643,19.99643,0,0,0,35.41248-16.8349Z" style="fill:#5fb1d7"/><path d="M40,26.901l-7.7597,1.94586A3,3,0,0,1,30.78088,23.027l.97-.24323A3,3,0,1,0,30.2915,16.964L15.3092,21.03033a20.025,20.025,0,0,0-2.84228,6.78229L19.1413,25.9458a3,3,0,0,1,1.45935,5.81982l-.97.24323a3,3,0,0,0,1.45941,5.81982l20.36932-5.10784A3,3,0,1,0,40,26.901Z" style="fill:#2b7fc9"/><path d="M13.06836,46.03369c-5.59277,0-10.03711-.69336-11.89453-2.02539A2.44113,2.44113,0,0,1,0,42c0-4.458,6.292-8.38965,11.57031-10.90283l.85938,1.80566C5.89941,36.0127,2,39.41357,2,42c0,.06982.10449.21533.33887.38281C5.85352,44.9043,24.208,44.82324,38.49414,39.981,53.76172,34.80762,62,28.9165,62,26a.41815.41815,0,0,0-.14746-.22412c-1.05566-1.02783-3.43164-1.97608-10.8252-1.77637l-2.05468-1.999c3.47851-.09668,11.81543-.05274,14.27441,2.34228A2.28067,2.28067,0,0,1,64,26c0,5.499-13.39355,11.98877-24.86328,15.87549A86.56067,86.56067,0,0,1,13.06836,46.03369Z" style="fill:#d1d3d4"/><path d="M16.47461,27.64551l2.91016-.73a2.00021,2.00021,0,0,1,.97265,3.88037l-.96972.24316A3.99995,3.99995,0,1,0,21.333,38.79883l20.36914-5.10791a4.00018,4.00018,0,0,0-1.94531-7.76026L31.99707,27.877a2.00022,2.00022,0,0,1-.97266-3.88037l.96973-.24267a4.00006,4.00006,0,0,0-1.94629-7.75977l-9.69922,2.43262a.99975.99975,0,1,0,.48633,1.93945l9.69922-2.43262a2.00033,2.00033,0,0,1,.97363,3.88037l-.96972.24268a4.00018,4.00018,0,0,0,1.94531,7.76025l7.75976-1.94628a2.00022,2.00022,0,0,1,.97266,3.88037L20.84668,36.85889a2.00021,2.00021,0,1,1-.97266-3.88037l.96973-.24317a3.99994,3.99994,0,0,0-1.94531-7.75976l-2.91016.72949a1.00022,1.00022,0,0,0,.48633,1.94043Z"/><path d="M64,24a2.28067,2.28067,0,0,0-.75293-1.65723c-2.40839-2.3457-10.4433-2.4356-14.04169-2.34753A20.96794,20.96794,0,0,0,11.1969,29.2793C5.99945,31.798,0,35.64606,0,40a2.44113,2.44113,0,0,0,1.17383,2.0083c1.85742,1.332,6.30176,2.02539,11.89453,2.02539.5553-.00006,1.14441-.02234,1.72089-.03607A20.98268,20.98268,0,0,0,52.8877,34.16815C59.2,30.93744,64,27.29144,64,24ZM32,13A19.02162,19.02162,0,0,1,51,32c0,.30719-.03162.60638-.04608.91A103.00381,103.00381,0,0,1,38.49414,37.981a83.83546,83.83546,0,0,1-22.64172,3.98211A18.9613,18.9613,0,0,1,32,13ZM2.33887,40.38281C2.10449,40.21533,2,40.06982,2,40c0-2.39386,3.34528-5.48492,9.02014-8.39771C11.01764,31.736,11,31.86572,11,32a20.86993,20.86993,0,0,0,2.54871,10.01868C8.08032,42.06384,3.845,41.46332,2.33887,40.38281ZM32,51a18.96417,18.96417,0,0,1-14.78778-7.09753,85.68281,85.68281,0,0,0,21.9245-4.027,110.75233,110.75233,0,0,0,11.56573-4.63355A19.01624,19.01624,0,0,1,32,51ZM52.99286,31.85931a20.86854,20.86854,0,0,0-2.54523-9.884c6.53369-.04956,10.41883.84046,11.40491,1.80054A.41815.41815,0,0,1,62,24C62,25.78625,58.89563,28.68976,52.99286,31.85931Z"/><path d="M29.05176,47.31641a.99809.99809,0,0,0,1.26465.63232l12-4a1.0001,1.0001,0,0,0-.63282-1.89746l-12,4A1.00026,1.00026,0,0,0,29.05176,47.31641Z"/><rect x="38" y="20" width="2" height="2"/><rect x="24" y="45" width="2" height="2"/><rect x="47" y="29" width="2" height="2"/></g></svg>
