<?xml version="1.0"?>
<svg xmlns="http://www.w3.org/2000/svg" viewBox="0 0 64 64" width="512" height="512"><g id="_6-venus" data-name="6-venus"><circle cx="32" cy="32" r="31" style="fill:#ffd241"/><path d="M50.135,6.86505A30.99253,30.99253,0,0,1,6.865,50.13489,30.9953,30.9953,0,1,0,50.135,6.86505Z" style="fill:#ffb028"/><path d="M38,38c8.14673,2.22186,19.57776-2.13629,24.96326-4.54773C62.98547,32.9707,63,32.48706,63,32a31.06644,31.06644,0,0,0-.81244-7.03876C35.1637,31.19952,12.11731,23.28461,3.56494,19.64856a30.76514,30.76514,0,0,0-2.21771,7.70856C5.80334,30.31348,13.8382,35,20,35,28,35,32.37451,36.46576,38,38Z" style="fill:#ffb028"/><path d="M59.56885,17.82959a31.06763,31.06763,0,0,0-4.863-6.926c-23.20264,5.93525-35.39777-.62469-40.20819-4.4884A31.17091,31.17091,0,0,0,8.017,12.35986C16.85553,16.71692,38.54742,24.4527,59.56885,17.82959Z" style="fill:#ffb028"/><path d="M27,51C14.796,49.644,5.81567,41.39673,1.294,36.22351A30.92194,30.92194,0,0,0,10.9248,54.72607c9.81073,1.93311,26.68848,4.57264,38.69385,2.77607a31.16592,31.16592,0,0,0,7.51886-7.37067A28.33056,28.33056,0,0,0,45,47C39,47,36.97461,51.71246,27,51Z" style="fill:#ffb028"/><path d="M46.75757,47.0755A30.97763,30.97763,0,0,1,6.8764,50.14307a31.13957,31.13957,0,0,0,4.0484,4.583c9.81073,1.93311,26.68848,4.57264,38.69385,2.77607a31.16592,31.16592,0,0,0,7.51886-7.37067A29.733,29.733,0,0,0,46.75757,47.0755Z" style="fill:#f7941d"/><path d="M62.18756,24.96124c-2.09906.48456-4.17071.87445-6.21686,1.19684a30.8587,30.8587,0,0,1-2.33929,10.73706,72.41393,72.41393,0,0,0,9.33185-3.44287C62.98547,32.9707,63,32.48706,63,32A31.06644,31.06644,0,0,0,62.18756,24.96124Z" style="fill:#f7941d"/><path d="M55.40613,18.95367c1.38794-.31689,2.77673-.68737,4.16272-1.12408a31.06763,31.06763,0,0,0-4.863-6.926c-.63165.16156-1.25153.30982-1.86694.45319A30.7689,30.7689,0,0,1,55.40613,18.95367Z" style="fill:#f7941d"/><path d="M32,0A32,32,0,1,0,64,32,32.03635,32.03635,0,0,0,32,0ZM56.88428,48.73846C55.36865,47.84875,51.44873,46,45,46a17.01384,17.01384,0,0,0-6.94824,1.6958A25.65281,25.65281,0,0,1,27,50c-9.44727,0-16.22656-6.64062-16.294-6.708A.99989.99989,0,0,0,9.293,44.707C9.59082,45.00488,16.7041,52,27,52a27.38179,27.38179,0,0,0,11.81152-2.4541A15.1996,15.1996,0,0,1,45,48a22.13238,22.13238,0,0,1,10.6958,2.366A29.98359,29.98359,0,0,1,7.93732,14.10468a47.10352,47.10352,0,0,0,15.95233,4.889A.94437.94437,0,0,0,24.001,19a.99986.99986,0,0,0,.10937-1.99365A45.90257,45.90257,0,0,1,9.21893,12.513,29.97436,29.97436,0,0,1,60.9577,24.1734C31.236,29.72186,14.59216,22.17212,14.4248,22.09473a1,1,0,0,0-.85058,1.81006c.50976.24023,9.49512,4.3457,26.124,4.3457a118.03034,118.03034,0,0,0,21.71985-2.12854,29.95081,29.95081,0,0,1-4.53381,22.61651Z"/><path d="M51.15234,12.98828a1,1,0,0,0-.30468-1.97656c-24.791,3.813-30.99121-2.5586-31.09668-2.67188a.9998.9998,0,0,0-1.50977,1.311c.20215.23584,4.13184,4.57959,18.2666,4.57959A96.814,96.814,0,0,0,51.15234,12.98828Z"/><path d="M59.87793,34.522a1.00131,1.00131,0,0,0-1.35645-.40039c-.10644.05811-10.7666,5.76074-20.23632,2.91992C32.62012,35.34229,28.14551,34,20,34c-7.52344,0-14.28223-5.70215-14.34961-5.75977a.99994.99994,0,0,0-1.30078,1.51905C4.64648,30.01416,11.72559,36,20,36c7.85254,0,12.20215,1.30518,17.71289,2.958a22.06291,22.06291,0,0,0,6.34961.88867,35.826,35.826,0,0,0,15.416-3.96875A.99938.99938,0,0,0,59.87793,34.522Z"/><path d="M34.24219,19.02979a1,1,0,0,0-.48438,1.94042,41.99541,41.99541,0,0,0,9.39551.92481,56.16793,56.16793,0,0,0,10.02539-.91113,1,1,0,0,0-.35742-1.96778A48.97393,48.97393,0,0,1,34.24219,19.02979Z"/><path d="M24.68359,57.94873a33.438,33.438,0,0,0,9.76075,1.3335,37.76212,37.76212,0,0,0,4.67968-.29.99991.99991,0,1,0-.248-1.98438,34.22906,34.22906,0,0,1-13.56055-.957,1.00018,1.00018,0,0,0-.63184,1.89795Z"/></g></svg>
